<svg id="katman_1" style="enable-background:new 0 0 512 512" version="1.1" viewBox="0 0 512 512" xml:space="preserve" xmlns="http://www.w3.org/2000/svg"><circle cx="256" cy="256" r="250" style="fill:#e84b3c"/><path d="M490.6 342.5c-.5-.5-.9-1-1.4-1.4L378.1 230c-3.1-3.1-6.4-5.7-10.2-7.9-14.6-8.7-29.2-17.5-43.8-26.3-46.1-27.7-92.2-55.4-138.4-83.1-8.9-5.4-18.4-7.3-28.7-5.4-18.1 3.5-31.6 19.5-31.6 37.9v222.7c0 10.5 3.8 19.6 11.2 27 36.7 36.8 73.5 73.5 110.2 110.3.3.3.5.5.8.7 2.8.1 5.6.2 8.4.2 107.7-.1 199.4-68.2 234.6-163.6z" style="fill:#c03a29"/><path d="M163.9 406c-6.6 0-13.3-1.7-19.4-5.2-12.5-7.1-19.9-19.8-19.9-34.2V145.4c0-14.3 7.5-27.1 19.9-34.2 12.5-7.1 27.3-6.9 39.6.5l184.3 110.6c11.9 7.2 19.1 19.8 19.1 33.7 0 13.9-7.1 26.5-19.1 33.7L184.1 400.3c-6.3 3.8-13.3 5.7-20.2 5.7zm0-276.7c-2.7 0-5.4.7-7.9 2.1-5.1 2.9-8.1 8.1-8.1 13.9v221.3c0 5.8 3 11 8.1 13.9 5.1 2.9 11.1 2.8 16.1-.2l184.3-110.6c4.9-3 7.8-8 7.8-13.7 0-5.8-2.8-10.8-7.8-13.7L172.1 131.6c-2.6-1.5-5.4-2.3-8.2-2.3z" style="fill:#fff"/></svg>