<svg aria-hidden="true" style="width:0;height:0;position:absolute;overflow:hidden" xmlns="http://www.w3.org/2000/svg"><defs><symbol id="icon-man-watch" viewBox="0 0 47 32"><path d="M23.963.488a2.353 2.353 0 0 1-.44.066 3.88 3.88 0 0 0-.411.11c-.334.099-.367.121-.488.279-.07.092-.128.18-.128.194s-.059.055-.128.088c-.07.033-.128.077-.128.095 0 .022-.092.095-.202.169s-.202.139-.202.147c0 .007.051-.007.11-.026.062-.022.11-.055.11-.07s.029-.04.066-.051c.033-.011-.011.044-.103.125-.117.106-.191.147-.25.136-.044-.007-.092 0-.106.022s-.004.026.029.011c.029-.015.018.004-.026.04-.114.103-.29.356-.279.4.004.022-.018.062-.048.088s-.055.066-.055.092c0 .029-.037.081-.084.117s-.088.077-.092.095c-.015.073-.125.242-.235.363a4.461 4.461 0 0 0-.242.312c-.283.411-.631.947-.631.969 0 .015-.066.143-.147.286s-.147.305-.15.36c-.004.117-.099.389-.106.305-.007-.07-.143.312-.161.451-.007.055-.026.114-.04.128s-.015-.015 0-.066c.018-.07.015-.081-.018-.051a.445.445 0 0 0-.059.198 1.088 1.088 0 0 1-.11.327c-.048.092-.088.202-.088.242s-.051.213-.114.385a6.666 6.666 0 0 0-.125.374c-.044.209-.139.246-.561.22l-.195-.015.029-.224c.044-.341.033-.936-.015-.984-.051-.051-.55-.055-1.112-.015-.374.026-.393.026-.642-.077s-.275-.106-.917-.106l-.661-.004-.275-.139a3.354 3.354 0 0 0-.771-.305c-.466-.128-.752-.191-.983-.216a1.555 1.555 0 0 1-.411-.095 4.888 4.888 0 0 0-.569-.224c-1.046-.367-1.824-.477-3.651-.521-1.005-.022-1.615-.048-1.809-.077-.216-.033-.272-.04-.815-.103-.283-.033-.536-.07-.561-.077s-.257-.051-.514-.092c-.257-.04-.69-.125-.961-.183-.727-.158-.873-.176-1.105-.128-.257.051-.565.22-.657.363-.04.062-.165.239-.275.389-.33.459-.374.528-.484.793-.128.297-.209.829-.172 1.119.029.242.106.55.158.653.022.04.04.202.04.363 0 .341.081.521.338.767.088.081.272.264.411.411.136.143.341.338.451.433.25.213.272.253.327.628.029.213.073.345.136.44.051.073.172.297.264.495.095.198.242.466.33.595s.261.426.385.664c.437.833.921 1.42 1.552 1.872.308.224.451.363.617.602.081.121.205.275.547.672.051.059.198.228.33.371s.279.319.33.389c.048.07.099.136.11.147s.088.099.165.198c.081.103.209.242.286.308.077.07.231.261.345.426s.25.349.301.411c.198.235.224.272.224.294 0 .015.07.084.154.158a3 3 0 0 1 .565.62c.169.246.389.466 1.644 1.659.855.807 1.292 1.182 1.618 1.372.062.037.187.191.29.363.253.415.613.972.826 1.27l.176.246.062.605c.033.33.081.76.106.95.07.558.051 1.681-.044 2.367a47.45 47.45 0 0 1-.283 1.853c-.158.961-.411 2.261-.514 2.62a1.418 1.418 0 0 0-.051.231c0 .04 1.879.048 10.756.048h10.756l-.022-.099c-.073-.404-.095-.719-.132-1.754-.022-.646-.055-1.248-.077-1.339-.051-.216-.055-.705-.018-1.56.022-.561.015-.884-.044-1.677-.044-.595-.062-1.028-.044-1.101.466-1.85.521-2.04.76-2.598.279-.65.65-1.56.73-1.784.059-.161.25-.382.33-.382.026 0 .165.018.305.044.239.04.272.037.598-.062.451-.139.624-.264.807-.587.081-.139.275-.389.433-.554s.323-.367.363-.444c.04-.081.125-.202.191-.272s.242-.264.396-.437c.15-.172.286-.319.297-.33s.136-.158.275-.33c.143-.172.301-.363.352-.422.213-.246.818-.921.873-.976.099-.095.609-.664.756-.84.426-.51 1.549-2.062 1.725-2.393.018-.037.048-.066.062-.066s.059-.062.099-.139a.735.735 0 0 1 .261-.261c.407-.264.774-.683 1.02-1.16.117-.235.44-1.035.466-1.167.015-.062.048-.143.073-.172s.117-.187.202-.349c.088-.161.202-.36.257-.44.147-.213.393-.719.539-1.101.172-.44.176-.749.015-1.189a3.948 3.948 0 0 0-1.002-1.53c-.437-.418-.528-.437-1.534-.308-.473.062-2.422.205-2.954.22-.958.026-2.4.136-2.972.224-.749.114-2.029.499-2.444.73a.952.952 0 0 1-.202.059c-.081.011-.283.081-.455.147s-.528.191-.793.272l-.484.15-.191-.095c-.231-.117-.385-.11-.745.033a1.188 1.188 0 0 1-.418.095c-.261 0-.961.073-1.064.114-.092.033-.268.374-.349.664-.022.099-.059.176-.077.176-.015 0-.132-.026-.257-.059-.206-.051-.235-.07-.29-.191-.095-.213-.176-.492-.172-.613.004-.183-.029-.422-.059-.451-.015-.015-.018.033-.004.103.033.172-.026.099-.103-.125-.077-.239-.073-.29.015-.132.04.07.07.106.073.077 0-.029-.04-.106-.092-.172s-.092-.147-.092-.176a.706.706 0 0 0-.139-.323 1.81 1.81 0 0 1-.136-.378c-.077-.29-.077-.316-.022-.301.095.022.055-.143-.073-.305-.125-.158-.44-.697-.411-.697.015 0 .055.029.095.062.04.037.011-.018-.062-.125a1.059 1.059 0 0 1-.15-.272c-.011-.048-.04-.099-.073-.114-.029-.018-.055-.055-.055-.084 0-.026-.07-.106-.154-.18-.15-.121-.154-.132-.088-.18.07-.051.066-.055-.037-.121a1.362 1.362 0 0 1-.202-.158c-.143-.143-.25-.224-.297-.224-.051 0-.36-.18-.36-.206 0-.015.026-.015.055 0 .029.011.055.011.055.004 0-.029-.305-.165-.371-.165-.033 0-.07-.022-.081-.051-.011-.026-.095-.062-.187-.073-.092-.015-.169-.04-.169-.055s-.099-.048-.22-.073c-.121-.029-.22-.066-.22-.084s-.084-.029-.183-.026c-.183.011-.25-.026-.459-.246-.139-.147-.297-.209-.672-.257a5.738 5.738 0 0 1-.503-.084c-.132-.044-.58-.092-.605-.066zm4.334 1.886c.048.059.044.062-.011.015-.037-.026-.066-.055-.066-.062 0-.029.029-.011.077.048zm-8 1.564c-.037.033-.04.029-.018-.022.011-.037.033-.055.044-.044s0 .04-.026.066zm17.464 5.787c0 .092-.073.161-.297.29-.114.062-.426.319-.69.569-.327.308-.525.47-.617.499a3.59 3.59 0 0 0-.433.202c-.261.136-.33.158-.605.176a2.906 2.906 0 0 0-.734.154c-.231.073-.613.191-.844.257-.65.191-1.094.356-1.706.642-.081.037-.327.154-.55.257s-.587.235-.818.297a6.033 6.033 0 0 0-.686.22c-.257.106-.349.114-.349.029 0-.018.026-.033.059-.033.029 0 .044-.018.033-.037a.088.088 0 0 1 .007-.084c.015-.022.029-.07.029-.099s.029-.051.062-.051a.055.055 0 0 0 .062-.055c.004-.198.062-.323.22-.477.095-.092.246-.261.334-.371.092-.11.242-.294.338-.4.099-.11.176-.22.176-.239 0-.022.114-.154.253-.294l.25-.25.209.077c.114.04.242.077.283.077.092 0 .47-.125.712-.239.103-.044.268-.114.371-.147l.187-.066.198.114c.305.172.55.187.991.051.294-.088.396-.143.605-.312.139-.11.327-.275.415-.371.224-.228.319-.242.561-.081.158.11.228.132.378.132.352-.004.477-.055.936-.396.15-.114.18-.121.411-.11.198.007.25.022.25.066zm-25.919.422c.125.088.484.165.642.143.128-.022.169-.004.444.18.411.275.415.275.859.356.47.088.628.092.892.015.316-.084.341-.092.451-.066.055.011.194.103.308.202.206.18.206.18.466.18.143 0 .345.026.444.059.191.059.991.235 1.075.235.026 0 .088-.044.139-.099l.092-.099.473.473c.367.367.462.481.422.506-.066.037-.073.121-.011.158.026.018.033.007.015-.026-.015-.029-.007-.026.022.007.037.044.062.051.11.018.051-.029.084-.018.172.066.084.081.103.121.073.154-.022.026-.029.066-.015.088s.007.062-.015.088c-.07.084.092.099.165.018.048-.051.077-.059.103-.033.029.029.022.051-.026.077-.062.037-.172.216-.172.286 0 .018.055-.011.117-.073.139-.125.206-.139.125-.026-.07.099-.077.154-.011.114.026-.015.022.007-.011.062-.103.161-.154.301-.103.272a.387.387 0 0 0 .095-.095c.048-.066.117-.059.117.011 0 .022-.018.026-.037.015-.022-.015-.062.033-.092.099s-.073.147-.099.176c-.081.095-.371.316-.561.426a1.017 1.017 0 0 0-.206.136c-.015.022-.088.022-.165.007-.128-.022-.312-.165-.558-.433-.29-.312-.356-.338-.613-.231-.132.055-.187.132-.279.385-.029.092-.077.172-.099.18-.026.007-.268-.209-.539-.481-.543-.547-.87-.822-1.229-1.042-.294-.18-.503-.253-.892-.308-.239-.037-.338-.07-.466-.161-.25-.18-.947-.521-1.167-.569-.172-.04-.213-.066-.338-.242a3.117 3.117 0 0 0-.635-.631c-.15-.099-.257-.264-.228-.345.026-.07.459-.286.569-.286a.37.37 0 0 1 .172.055zm7.182 4.025c-.018.029-.004.033.044.015.051-.018.059-.015.029.015a.205.205 0 0 1-.092.048.348.348 0 0 0-.095.037c-.084.051-.051-.04.033-.099.099-.07.117-.073.081-.015zm-.257.096c.007.015-.026.033-.081.037-.077.004-.088 0-.044-.029.066-.044.099-.044.125-.007zm1.369.701.004.341-.165.07a.974.974 0 0 1-.308.07c-.117 0-.143-.011-.143-.073 0-.04-.022-.147-.044-.242-.044-.158-.04-.169.044-.239.121-.095.521-.294.569-.279.022.007.04.165.044.352z"/></symbol><symbol id="icon-google" viewBox="0 0 32 32"><path fill="#fbbc05" style="fill:var(--color1,#fbbc05)" d="M0 24.667V7.334l11.333 8.667z"/><path fill="#ea4335" style="fill:var(--color2,#ea4335)" d="M0 7.333 11.333 16 16 11.933l16-2.6V0H0z"/><path fill="#34a853" style="fill:var(--color3,#34a853)" d="M0 24.667 20 9.334l5.267.667L32 .001v32H0z"/><path fill="#4285f4" style="fill:var(--color4,#4285f4)" d="M32 32 11.333 16l-2.667-2 23.333-6.667z"/></symbol><symbol id="icon-close" viewBox="0 0 32 32"><path stroke-width="2.133" d="m8.533 8.533 14.933 14.933M8.533 23.467 23.466 8.534"/></symbol><symbol id="icon-de" viewBox="0 0 43 32"><path fill="#ffce00" style="fill:var(--color5,#ffce00)" d="M0 21.333h42.667V32H0z"/><path style="fill:var(--color6,#000)" d="M0 0h42.667v10.667H0z"/><path fill="#d00" style="fill:var(--color7,#d00)" d="M0 10.667h42.667v10.667H0z"/></symbol><symbol id="icon-es" viewBox="0 0 43 32"><path fill="#ad1519" style="fill:var(--color8,#ad1519)" d="m8.487 14.22-.053-.007-.067-.067-.047-.027-.04-.053s-.047-.073-.027-.133c.02-.06.06-.08.093-.1a.791.791 0 0 1 .094-.032l.006-.001.067-.027.087-.02.033-.02c.013 0 .047 0 .067-.013l.067-.013.107.007h.32c.027 0 .08.02.093.027.028.012.072.027.117.042l.017.005c.033.007.107.02.147.04.033.02.06.047.073.067l.033.067v.073l-.033.053-.04.067-.053.04s-.033.033-.067.027c-.027 0-.32-.053-.507-.053s-.487.06-.487.06z"/><path fill="#c8b100" style="fill:var(--color9,#c8b100)" d="M9.02 13.613v.04h-.093v-.04h.033v-.08h-.047v-.04h.047v-.033h.033v.033h.04v.04h-.04v.08h.027z"/><path fill="#c8b100" style="fill:var(--color9,#c8b100)" d="M9.06 13.613v.04h-.167v-.04h.067v-.08h-.047v-.04h.047v-.033h.033v.033h.04v.04h-.04v.08h.067zM8.98 14.213h-.313v-.073l-.02-.08-.013-.1c-.087-.113-.167-.187-.193-.167.007-.02.013-.04.033-.047.073-.047.233.067.347.24l.033.047h.253l.027-.047c.12-.18.273-.287.347-.24.02.007.027.027.033.047-.027-.02-.107.053-.193.167l-.013.1-.013.08-.007.073h-.313z"/><path fill="#c8b100" style="fill:var(--color9,#c8b100)" d="m8.52 14.353-.033-.067a1.857 1.857 0 0 1 .993.003l-.013-.003-.033.053a.302.302 0 0 0-.019.051l-.001.003a1.497 1.497 0 0 0-.402-.054l-.04.001h.002c-.173 0-.347.02-.433.053l-.02-.04z"/><path fill="#c8b100" style="fill:var(--color9,#c8b100)" d="M8.973 14.513c.16 0 .333-.027.393-.04.04-.013.067-.033.067-.053 0-.013-.013-.02-.027-.027-.093-.033-.267-.053-.433-.053s-.333.02-.427.053c-.013 0-.02.013-.027.02 0 .027.02.047.067.06.067.013.233.04.387.04zM9.473 14.213l-.033-.033s-.04.02-.087.013c-.04 0-.06-.067-.06-.067s-.047.047-.087.047c-.047 0-.067-.04-.067-.04s-.047.033-.087.027c-.04 0-.08-.053-.08-.053s-.04.053-.08.053c-.04.007-.067-.033-.067-.033s-.027.04-.073.047-.093-.04-.093-.04-.033.047-.067.067c-.033 0-.08-.027-.08-.027l-.013.033-.02.007.013.033c.138-.038.297-.06.461-.06h.02-.001c.2 0 .367.027.493.067l.013-.04z"/><path fill="#c8b100" style="fill:var(--color9,#c8b100)" d="M8.98 14.047h.013l-.001.013.001.014c0 .04.027.067.067.067h.003c.03 0 .055-.019.063-.046l.013-.02v.027c.007.033.04.053.073.053.04 0 .067-.027.067-.067v-.007l.027-.027.013.033a.06.06 0 0 0-.007.027c0 .037.03.067.067.067a.069.069 0 0 0 .06-.033l.013-.013v.02c0 .02.007.04.027.047 0 0 .027 0 .067-.027l.047-.047v.027s-.033.053-.067.067c-.013.013-.033.027-.053.02-.02 0-.04-.02-.047-.04-.013.013-.027.013-.047.013-.04 0-.08-.02-.093-.053a.107.107 0 0 1-.073.033.106.106 0 0 1-.08-.04.106.106 0 0 1-.066.027h-.003a.106.106 0 0 1-.083-.04.108.108 0 0 1-.086.043.103.103 0 0 1-.074-.03.106.106 0 0 1-.08.04.098.098 0 0 1-.073-.033c-.013.033-.053.053-.093.053-.013 0-.033 0-.047-.013-.007.02-.027.04-.047.04s-.04 0-.06-.013l-.067-.067.007-.033.053.047c.033.027.06.027.06.027.02 0 .027-.027.027-.047v-.02l.013.013c.013.02.033.033.06.033.037 0 .067-.03.067-.067l.002-.013-.002-.014v-.033l.027.027v.007c0 .04.033.067.067.067.04 0 .067-.02.073-.06v-.02l.013.02c.013.027.04.047.067.047.047 0 .073-.027.073-.067l.001-.01-.001-.01h.02z"/><path fill="#c8b100" style="fill:var(--color9,#c8b100)" d="M8.973 14.22c-.193 0-.367.027-.487.067l-.02-.013.007-.02c.146-.042.313-.067.486-.067h.015-.001c.2 0 .38.027.507.067 0 0 .013.013.007.02l-.02.013a1.787 1.787 0 0 0-.488-.067h-.005z"/><path fill="#fff" style="fill:var(--color10,#fff)" d="M8.787 14.293c0-.02.013-.027.033-.027.015 0 .027.012.027.027 0 .013-.013.027-.027.027l-.007.001a.027.027 0 0 1-.027-.027v-.001z"/><path fill="#ad1519" style="fill:var(--color8,#ad1519)" d="M8.98 14.3h-.067c-.007 0-.02 0-.02-.02l.02-.02h.133a.02.02 0 0 1 .013.019v.001a.02.02 0 0 1-.02.02h-.067z"/><path fill="#058e6e" style="fill:var(--color11,#058e6e)" d="M8.667 14.327H8.62c-.007 0-.02 0-.02-.013v-.001a.02.02 0 0 1 .013-.019l.093-.013c.013 0 .02 0 .027.013l.001.007a.02.02 0 0 1-.02.02h-.048z"/><path fill="#fff" style="fill:var(--color10,#fff)" d="M9.107 14.293c0-.02.013-.027.027-.027l.007-.001c.015 0 .027.012.027.027v.002a.027.027 0 0 1-.027.027l-.007-.001a.027.027 0 0 1-.027-.027z"/><path fill="#058e6e" style="fill:var(--color11,#058e6e)" d="M9.287 14.327h.04l.007.001a.02.02 0 0 0 .019-.015.02.02 0 0 0-.02-.02l-.04-.007-.047-.007c-.013 0-.02 0-.027.013 0 .013.007.02.02.027h.047z"/><path fill="#ad1519" style="fill:var(--color8,#ad1519)" d="M8.973 14.473h-.035c-.129 0-.255-.015-.376-.043l.011.002a1.722 1.722 0 0 1 .818.002l-.012-.002c-.107.027-.247.04-.4.04z"/><path fill="#c8b100" style="fill:var(--color9,#c8b100)" d="m8.973 13.9-.053.033.04.087.013.007.013-.007.047-.087-.06-.033z"/><path fill="#c8b100" style="fill:var(--color9,#c8b100)" d="m8.853 14.033.027.033.087-.027.007-.013-.007-.013-.087-.02-.027.04z"/><path fill="#c8b100" style="fill:var(--color9,#c8b100)" d="m9.093 14.033-.02.033-.087-.027-.013-.013.013-.013.087-.02.02.04zM8.62 13.933l-.047.047.06.067.013.007.007-.007.02-.087-.053-.02zM8.533 14.08l.027.033.08-.04v-.013l-.007-.013-.087-.007-.02.04zM8.767 14.033l-.02.04h-.08l-.013-.013.007-.02.08-.04.033.033zM8.44 14.093v.04l-.093.013-.013-.007v-.013l.067-.06.04.027z"/><path fill="#c8b100" style="fill:var(--color9,#c8b100)" d="M8.613 14.06c0-.02.013-.033.033-.033s.033.013.033.033a.034.034 0 0 1-.033.027h-.002a.034.034 0 0 1-.033-.026zM9.333 13.933l.047.047-.06.067-.013.007-.007-.007-.02-.087.053-.02zM9.427 14.08l-.033.033-.08-.04v-.013l.007-.013.087-.007.02.04z"/><path fill="#c8b100" style="fill:var(--color9,#c8b100)" d="m9.187 14.033.02.04h.087l.013-.013-.007-.02-.08-.04-.033.033zM9.5 14.093l.007.04.087.013.013-.007v-.013l-.067-.06-.04.027zM8.947 14.027A.034.034 0 0 1 8.973 14c.02 0 .033.013.033.027a.033.033 0 0 1-.033.033.034.034 0 0 1-.027-.033v-.001z"/><path fill="#c8b100" style="fill:var(--color9,#c8b100)" d="M9.273 14.06c0-.02.02-.033.033-.033.018 0 .033.015.033.033a.034.034 0 0 1-.033.027h-.002a.034.034 0 0 1-.033-.026zM8.32 14.147l-.04-.047c-.013-.013-.047-.02-.047-.02 0-.007.02-.02.04-.02.011 0 .021.005.027.013v-.013s.02 0 .027.02v.067zM9.62 14.147l.04-.047c.013-.013.047-.02.047-.02 0-.007-.02-.02-.04-.02a.043.043 0 0 0-.027.013v-.013s-.02 0-.027.02v.047l.007.02zM8.413 15.12l.013-.001.014.001h1.1a.095.095 0 0 1-.067-.08c0-.04.033-.073.067-.087l-.013.001-.014-.001h.001-1.067l-.017.002a.088.088 0 0 1-.017-.002h.001c.04.013.067.047.067.087a.088.088 0 0 1-.066.08h-.001z"/><path fill="#c8b100" style="fill:var(--color9,#c8b100)" d="M8.44 15.12h1.067c.04 0 .067.02.067.047s-.027.053-.067.053H8.44c-.033 0-.067-.027-.067-.053s.033-.053.067-.053zM8.44 14.867h1.067c.04 0 .067.027.067.047 0 .027-.027.04-.067.04H8.44c-.033 0-.067-.013-.067-.04 0-.02.033-.04.067-.04z"/><path fill="#005bbf" style="fill:var(--color12,#005bbf)" d="M9.973 21.16a.547.547 0 0 1-.247-.053.549.549 0 0 0-.239-.054h-.015.001a.57.57 0 0 0-.247.053.541.541 0 0 1-.238.054h-.017.001c-.1 0-.187-.02-.247-.053a.548.548 0 0 0-.239-.053h-.022a.532.532 0 0 0-.236.055l.003-.001a.54.54 0 0 1-.237.054h-.017.001v.16c.1 0 .187-.027.253-.06a.535.535 0 0 1 .236-.053h.011-.001c.093 0 .18.02.247.053s.147.06.247.06h.001a.558.558 0 0 0 .255-.061l-.003.001a.566.566 0 0 1 .247-.053c.1 0 .187.02.253.053s.147.06.247.06v-.16z"/><path fill="#ccc" style="fill:var(--color13,#ccc)" d="M9.973 21.32h-.001a.536.536 0 0 1-.249-.061l.003.001a.541.541 0 0 0-.238-.054h-.017.001c-.093 0-.18.02-.247.053s-.153.06-.253.06-.187-.027-.247-.06a.548.548 0 0 0-.239-.053h-.019a.545.545 0 0 0-.239.055l.003-.001a.572.572 0 0 1-.253.06v.153c.1 0 .187-.027.253-.06a.53.53 0 0 1 .248-.046h-.001c.093 0 .18.013.247.047a.543.543 0 0 0 .503-.001l-.003.001a.567.567 0 0 1 .503.008l-.003-.002a.53.53 0 0 0 .234.053h.013-.001v-.153z"/><path fill="#005bbf" style="fill:var(--color12,#005bbf)" d="m9.973 21.467-.028.001a.47.47 0 0 1-.221-.055l.002.001a.544.544 0 0 0-.224-.047l-.031.001h.001a.556.556 0 0 0-.247.047c-.067.04-.153.06-.253.06s-.187-.027-.247-.06a.548.548 0 0 0-.239-.053h-.022a.532.532 0 0 0-.236.055l.003-.001a.572.572 0 0 1-.253.06v.153c.1 0 .187-.02.253-.06a.675.675 0 0 1 .498.002l-.005-.002a.46.46 0 0 0 .229.06h.018-.001.014c.087 0 .169-.02.242-.055l-.003.001a.566.566 0 0 1 .247-.053c.1 0 .187.02.253.053s.147.053.247.053v-.16z"/><path fill="#ccc" style="fill:var(--color13,#ccc)" d="M9.973 21.78h-.014a.532.532 0 0 1-.236-.055l.003.001a.566.566 0 0 0-.247-.053h-.014a.558.558 0 0 0-.242.055l.003-.001a.574.574 0 0 1-.253.053h-.017a.46.46 0 0 1-.232-.062l.002.001a.545.545 0 0 0-.225-.047h-.023.001c-.093 0-.18.02-.247.053s-.153.053-.253.053v-.153h.003a.557.557 0 0 0 .254-.061l-.003.001a.675.675 0 0 1 .498.002l-.005-.002c.071.038.156.06.246.06h.015c.087 0 .169-.02.242-.055l-.003.001a.574.574 0 0 1 .253-.053c.093 0 .18.02.247.053s.153.053.247.053v.153z"/><path fill="#005bbf" style="fill:var(--color12,#005bbf)" d="M9.973 21.933h-.012a.536.536 0 0 1-.237-.055l.003.001a.566.566 0 0 0-.247-.053h-.014a.558.558 0 0 0-.242.055l.003-.001a.574.574 0 0 1-.253.053h-.017a.46.46 0 0 1-.232-.062l.002.001a.545.545 0 0 0-.225-.047h-.023.001c-.093 0-.18.02-.247.053s-.153.053-.253.053v-.153h.016c.086 0 .168-.02.241-.055l-.003.001c.067-.033.153-.053.247-.053s.18.02.247.047a.555.555 0 0 0 .503-.001l-.003.001a.68.68 0 0 1 .253-.047c.093 0 .18.02.247.053s.147.053.247.053v.153z"/><path fill="#c8b100" style="fill:var(--color9,#c8b100)" d="m8.413 20.533.013.033c0 .1-.087.173-.18.173h1.467a.18.18 0 0 1-.18-.173v-.034l-.01.001-.01-.001H8.446l-.017.002a.088.088 0 0 1-.017-.002h.001z"/><path fill="#c8b100" style="fill:var(--color9,#c8b100)" d="M8.44 20.433h1.067c.04 0 .067.02.067.053 0 .027-.027.047-.067.047H8.44c-.033 0-.067-.02-.067-.053 0-.027.033-.047.067-.047z"/><path fill="#ad1519" style="fill:var(--color8,#ad1519)" d="M8.133 19.113c-.147.08-.247.167-.227.213 0 .04.053.067.12.107.1.073.167.2.113.267a.366.366 0 0 0-.006-.586l-.001-.001zM10.56 17.18a3.32 3.32 0 0 0-1.573-.131l.019-.002c-.627.107-1.1.353-1.06.56v.013l-.233-.547c-.04-.22.48-.5 1.173-.613.157-.031.338-.048.523-.048l.095.002h-.005c.44 0 .827.053 1.053.14v.627z"/><path fill="#ad1519" style="fill:var(--color8,#ad1519)" d="M7.807 18.8c-.027-.08.253-.24.653-.387l.52-.213c.553-.247.96-.527.907-.627v-.013c.027.027.067.533.067.533.053.087-.32.367-.827.607-.167.08-.507.2-.667.267-.293.093-.58.287-.553.353l-.1-.513z"/><path fill="#c8b100" style="fill:var(--color9,#c8b100)" d="M8.387 16.933c.127-.04.207-.1.167-.2-.027-.067-.093-.067-.187-.04l-.173.067.153.387.107-.04-.067-.167zm-.08-.18.047-.02c.033-.013.08.007.093.053.013.033.013.067-.033.1a.193.193 0 0 1-.038.019l-.002.001-.067-.153zm.486-.166-.06.02H8.68l.087.407.287-.053-.013-.027v-.027l-.167.04-.08-.353zm.56.353c.053-.147.113-.287.18-.427l-.033.002-.035-.002h.001a3.52 3.52 0 0 1-.129.33l.009-.023-.16-.287-.067.007h-.067c.059.092.137.223.211.355l.023.045h.067zm.587-.313.027-.06a.23.23 0 0 0-.113-.04h-.001c-.113-.007-.18.04-.187.113-.013.14.213.133.2.227 0 .04-.047.06-.093.053-.053 0-.093-.033-.093-.08h-.02a.447.447 0 0 1-.028.076l.001-.003a.263.263 0 0 0 .119.04h.001c.113.013.2-.033.213-.113.013-.133-.22-.14-.207-.227 0-.033.027-.053.087-.047.047 0 .067.027.08.06h.013z"/><path fill="#ad1519" style="fill:var(--color8,#ad1519)" d="M18.527 14.107s-.047.053-.087.06c-.033 0-.073-.033-.073-.033s-.033.033-.067.04c-.04.007-.093-.04-.093-.04l-.067.067c-.04 0-.073-.02-.073-.02s-.02.027-.047.04h-.027l-.04-.027-.047-.047-.033-.02-.027-.067v-.033c-.007-.04.053-.093.147-.113a.261.261 0 0 1 .136 0h-.002c.033-.033.113-.053.2-.053s.16.02.2.047a.36.36 0 0 1 .179-.047h.015-.001c.087 0 .167.02.2.053a.229.229 0 0 1 .133 0c.093.02.153.067.147.113v.033l-.027.067-.04.02-.04.047-.04.02s-.02.013-.027 0a.102.102 0 0 1-.047-.033s-.04.027-.067.013c-.033-.013-.067-.067-.067-.067s-.06.053-.093.047c-.04-.007-.067-.04-.067-.04s-.047.04-.08.033c-.033-.007-.08-.06-.08-.06z"/><path fill="#c8b100" style="fill:var(--color9,#c8b100)" d="M18.067 14.353a.309.309 0 0 0-.034-.068l.001.001a1.84 1.84 0 0 1 .999.003l-.013-.003-.04.053a.338.338 0 0 0-.019.051l-.001.002a1.497 1.497 0 0 0-.402-.054l-.04.001h.002c-.173 0-.347.02-.44.053l-.013-.04z"/><path fill="#c8b100" style="fill:var(--color9,#c8b100)" d="M18.52 14.513c.16 0 .333-.027.393-.04.04-.013.067-.033.067-.053 0-.013-.013-.02-.027-.027a1.567 1.567 0 0 0-.411-.053h-.023.001c-.167 0-.333.02-.427.053-.013 0-.02.013-.027.02 0 .027.02.047.067.06.067.013.233.04.387.04zM19.02 14.213l-.033-.033s-.04.02-.087.013c-.04 0-.06-.067-.06-.067s-.047.047-.087.047c-.047 0-.067-.04-.067-.04s-.047.033-.087.027c-.04 0-.08-.053-.08-.053s-.04.053-.08.053c-.04.007-.067-.033-.067-.033s-.02.04-.073.047-.093-.04-.093-.04-.027.047-.067.067c-.033 0-.08-.027-.08-.027l-.007.033-.02.007.007.033c.138-.038.297-.06.462-.06h.026-.001c.187 0 .36.027.487.067l.013-.04z"/><path fill="#fff" style="fill:var(--color10,#fff)" d="M18.087 13.893c0-.013.013-.027.027-.027s.027.013.027.027a.027.027 0 0 1-.027.027.027.027 0 0 1-.027-.027z"/><path fill="#c8b100" style="fill:var(--color9,#c8b100)" d="M18.527 14.047h.013l-.001.013.001.014c0 .04.033.067.067.067h.003c.03 0 .055-.019.064-.046l.013-.02v.027c.007.033.04.053.073.053.04 0 .067-.027.067-.067v-.007l.027-.027.013.033a.077.077 0 0 0-.007.027c0 .037.03.067.067.067a.069.069 0 0 0 .06-.033l.013-.013v.02c0 .02.007.04.027.047 0 0 .027 0 .067-.027s.047-.047.047-.047v.027s-.033.053-.067.067c-.013.013-.033.027-.053.02-.02 0-.04-.02-.047-.04a.09.09 0 0 1-.047.013c-.04 0-.08-.02-.093-.053a.098.098 0 0 1-.073.033c-.033 0-.067-.013-.08-.04a.104.104 0 0 1-.067.027.118.118 0 0 1-.093-.04c-.013.027-.047.04-.08.04-.027 0-.053-.007-.067-.027a.109.109 0 0 1-.083.04h-.004a.105.105 0 0 1-.073-.033c-.013.033-.053.053-.093.053-.013 0-.033 0-.047-.013-.007.02-.027.04-.047.04s-.04 0-.06-.013a.295.295 0 0 1-.066-.066l-.001-.001.007-.033.053.047c.033.027.06.027.06.027.02 0 .027-.027.027-.047v-.02l.013.013c.013.02.033.033.06.033.037 0 .067-.03.067-.067l.001-.013-.001-.014v-.033l.027.027v.007c0 .04.033.067.067.067.04 0 .067-.02.073-.06v-.02l.013.02c.013.027.04.047.067.047.04 0 .073-.027.073-.067l.001-.01-.001-.01h.013z"/><path fill="#c8b100" style="fill:var(--color9,#c8b100)" d="M18.52 14.22c-.193 0-.367.027-.487.067l-.02-.013.007-.02a1.78 1.78 0 0 1 .5-.067c.2 0 .38.027.507.067 0 0 .013.013.007.02l-.02.013a1.77 1.77 0 0 0-.485-.067h-.008z"/><path fill="#fff" style="fill:var(--color10,#fff)" d="M18.333 14.293c0-.02.013-.027.033-.027.015 0 .027.012.027.027a.027.027 0 0 1-.027.027c-.02 0-.033-.013-.033-.027z"/><path fill="#ad1519" style="fill:var(--color8,#ad1519)" d="M18.527 14.3h-.067c-.007 0-.02 0-.02-.02l.02-.02h.133a.02.02 0 0 1 .013.019v.001a.02.02 0 0 1-.02.02h-.067z"/><path fill="#058e6e" style="fill:var(--color11,#058e6e)" d="M18.213 14.327h-.04l-.007.001a.02.02 0 0 1-.019-.015.02.02 0 0 1 .02-.02l.04-.007.047-.007c.013 0 .02 0 .027.013l.001.007a.02.02 0 0 1-.02.02h-.048zM18.833 14.327h.048a.02.02 0 0 0 .019-.013v-.001a.021.021 0 0 0-.013-.019l-.093-.013c-.013 0-.02 0-.027.013 0 .013.007.02.02.027h.047z"/><path fill="#ad1519" style="fill:var(--color8,#ad1519)" d="M18.52 14.473h-.035c-.129 0-.255-.015-.376-.043l.011.002c.119-.03.255-.047.395-.047h.005c.16 0 .3.02.407.047-.107.027-.247.04-.4.04z"/><path fill="#c8b100" style="fill:var(--color9,#c8b100)" d="m18.52 13.9-.053.033.04.087.013.007.02-.007.04-.087-.06-.033z"/><path fill="#c8b100" style="fill:var(--color9,#c8b100)" d="m18.4 14.033.027.033.087-.027.007-.013-.007-.013-.087-.02-.027.04zM18.64 14.033l-.02.033-.087-.027-.007-.013v-.013l.093-.02.027.04zM18.167 13.933l-.047.047.06.067.013.007.013-.007.013-.087-.053-.02zM18.073 14.08l.033.033.08-.04v-.013l-.007-.013-.087-.007-.02.04z"/><path fill="#c8b100" style="fill:var(--color9,#c8b100)" d="m18.313 14.033-.02.04h-.087l-.013-.013.007-.02.08-.04.033.033zM17.987 14.093v.04l-.093.013-.013-.007v-.013l.067-.06.04.027z"/><path fill="#c8b100" style="fill:var(--color9,#c8b100)" d="M18.16 14.06c0-.02.013-.033.033-.033.018 0 .033.015.033.033a.034.034 0 0 1-.033.027h-.002a.034.034 0 0 1-.033-.026zM18.88 13.933l.047.047-.06.067-.013.007-.007-.007-.02-.087.053-.02zM18.973 14.08l-.033.033-.08-.04v-.013l.007-.013.087-.007.02.04z"/><path fill="#c8b100" style="fill:var(--color9,#c8b100)" d="m18.733 14.033.02.04h.087l.013-.013-.007-.02-.08-.04-.033.033zM19.047 14.093v.04l.093.013.013-.007v-.013l-.067-.06-.04.027z"/><path fill="#c8b100" style="fill:var(--color9,#c8b100)" d="M18.82 14.06c0-.02.02-.033.033-.033.02 0 .033.013.033.033s-.013.027-.033.027h-.001a.034.034 0 0 1-.033-.026zM18.567 13.673v.04h-.1v-.04h.027v-.087h-.033v-.033h.033v-.04h.04v.04h.04v.04h-.04v.08h.027z"/><path fill="#c8b100" style="fill:var(--color9,#c8b100)" d="M18.6 13.673v.04h-.16v-.04h.067v-.087h-.047v-.033h.04v-.04h.04v.04h.04v.04h-.04v.08h.067zM17.867 14.147l-.04-.047a.137.137 0 0 0-.046-.02h-.001c0-.007.02-.02.04-.02.013 0 .02 0 .027.013v-.013s.02 0 .027.02v.067zM19.167 14.147l.04-.047c.013-.013.047-.02.047-.02 0-.007-.02-.02-.04-.02a.043.043 0 0 0-.027.013v-.013s-.02 0-.027.02v.047l.007.02zM19.087 15.12l-.013-.001-.014.001h-1.1c.04-.013.067-.047.067-.08 0-.04-.027-.073-.067-.087h1.127a.092.092 0 0 0-.067.087c0 .033.027.067.067.08z"/><path fill="#c8b100" style="fill:var(--color9,#c8b100)" d="M17.993 15.12h1.067c.04 0 .067.02.067.047s-.027.053-.067.053h-1.067c-.04 0-.067-.027-.067-.053s.033-.053.067-.053zM17.993 14.867h1.067c.04 0 .067.027.067.047 0 .027-.027.04-.067.04h-1.067c-.04 0-.067-.013-.067-.04 0-.02.027-.04.067-.04z"/><path fill="#005bbf" style="fill:var(--color12,#005bbf)" d="M17.533 21.16a.57.57 0 0 0 .247-.053.548.548 0 0 1 .239-.053h.008c.093 0 .187.02.253.053s.153.053.247.053c.1 0 .187-.02.253-.053a.548.548 0 0 1 .239-.053h.016c.085 0 .165.02.236.055l-.003-.001c.067.033.16.053.253.053v.16h-.003a.557.557 0 0 1-.254-.061l.003.001a.535.535 0 0 0-.236-.053h-.012.001c-.093 0-.18.02-.24.053a.572.572 0 0 1-.253.06h-.001a.536.536 0 0 1-.249-.061l.003.001a.549.549 0 0 0-.239-.054h-.015.001-.009a.557.557 0 0 0-.241.055l.003-.001a.572.572 0 0 1-.253.06v-.16z"/><path fill="#ccc" style="fill:var(--color13,#ccc)" d="M17.533 21.32c.093 0 .18-.027.247-.06s.153-.053.247-.053c.093 0 .187.02.253.053s.153.06.247.06h.004a.545.545 0 0 0 .252-.061l-.003.001a.548.548 0 0 1 .239-.053h.002c.1 0 .187.02.247.053.067.033.16.06.253.06v.153h-.003a.557.557 0 0 1-.254-.061l.003.001a.53.53 0 0 0-.221-.047l-.027.001h.001a.506.506 0 0 0-.24.047.572.572 0 0 1-.253.06h-.017a.46.46 0 0 1-.232-.062l.002.001a.68.68 0 0 0-.253-.047h-.023a.538.538 0 0 0-.227.049l.003-.001a.53.53 0 0 1-.247.06h-.006v-.153z"/><path fill="#005bbf" style="fill:var(--color12,#005bbf)" d="M17.533 21.467c.093 0 .18-.013.247-.053.067-.027.153-.047.247-.047s.187.013.253.047.153.06.247.06h.004a.545.545 0 0 0 .252-.061l-.003.001a.548.548 0 0 1 .239-.053h.016c.085 0 .165.02.236.055l-.003-.001c.067.033.16.06.253.06v.153h-.003a.557.557 0 0 1-.254-.061l.003.001a.535.535 0 0 0-.222-.047l-.026.001h.001a.61.61 0 0 0-.24.047.491.491 0 0 1-.253.06.547.547 0 0 1-.247-.053.549.549 0 0 0-.239-.054h-.015.001-.009a.557.557 0 0 0-.241.055l.003-.001a.574.574 0 0 1-.253.053v-.16z"/><path fill="#ccc" style="fill:var(--color13,#ccc)" d="M17.533 21.78h.014c.085 0 .165-.02.236-.055l-.003.001c.067-.033.153-.053.247-.053s.187.02.253.053.153.053.247.053c.1 0 .187-.02.253-.06a.544.544 0 0 1 .224-.047h.017-.001c.1 0 .187.02.247.053.07.034.151.054.238.054h.017-.001v-.153h-.003a.557.557 0 0 1-.254-.061l.003.001a.535.535 0 0 0-.222-.047l-.026.001h.001a.61.61 0 0 0-.24.047.572.572 0 0 1-.253.06.547.547 0 0 1-.247-.053.549.549 0 0 0-.239-.054h-.015.001-.009a.557.557 0 0 0-.241.055l.003-.001a.574.574 0 0 1-.253.053v.153z"/><path fill="#005bbf" style="fill:var(--color12,#005bbf)" d="M17.533 21.933h.012c.085 0 .166-.02.237-.055l-.003.001c.067-.033.153-.053.247-.053s.187.02.253.053.153.053.247.053h.004a.545.545 0 0 0 .252-.061l-.003.001a.544.544 0 0 1 .224-.047h.017-.001c.1 0 .187.02.247.053.067.033.16.053.253.053v-.153h-.016a.557.557 0 0 1-.241-.055l.003.001a.535.535 0 0 0-.236-.053h-.012.001-.016a.561.561 0 0 0-.228.048l.004-.001a.536.536 0 0 1-.249.06h-.005a.547.547 0 0 1-.247-.053.574.574 0 0 0-.253-.053c-.093 0-.18.02-.247.053s-.153.053-.253.053v.153z"/><path fill="#c8b100" style="fill:var(--color9,#c8b100)" d="m19.087 20.533-.007.033c0 .1.08.173.18.173h-1.467c.1 0 .18-.08.18-.173l-.007-.033h1.12zM17.993 20.433h1.067c.04 0 .067.02.067.053 0 .027-.027.047-.067.047h-1.067c-.04 0-.067-.02-.067-.053 0-.027.033-.047.067-.047z"/><path fill="#ad1519" style="fill:var(--color8,#ad1519)" d="M19.373 19.113c.14.08.24.167.227.213-.007.04-.053.067-.12.107-.107.073-.167.2-.12.267a.366.366 0 0 1 .012-.586l.001-.001zM16.947 17.18a3.32 3.32 0 0 1 1.573-.131l-.019-.002c.62.107 1.093.353 1.06.56v.013l.233-.547c.04-.22-.487-.5-1.173-.613a3.444 3.444 0 0 0-.576-.047h-.039.002c-.447 0-.827.053-1.06.14v.627z"/><path fill="#ad1519" style="fill:var(--color8,#ad1519)" d="M19.693 18.8c.027-.08-.253-.24-.647-.387-.187-.067-.333-.133-.52-.213-.553-.247-.96-.527-.907-.627v-.013c-.027.027-.067.533-.067.533-.053.087.32.367.827.607.16.08.507.2.667.267.287.093.58.287.553.353l.093-.513z"/><path fill="#c8b100" style="fill:var(--color9,#c8b100)" d="M17.593 16.96c.04-.153.093-.293.14-.44H17.7c-.009.002-.02.005-.031.006h-.002c-.032.133-.064.24-.101.345l.008-.025c-.067-.093-.133-.18-.18-.273l-.067.013h-.067c.074.099.162.222.247.348l.02.032h.033l.033-.007zm.4-.44h-.067l-.027.001-.028-.001h.001v.413h.28v-.047h-.173l.007-.367zm.447.067.133.02v-.047l-.387-.033v.053a1.336 1.336 0 0 1 .137 0h-.003l-.027.373h.107l.033-.36zm.153.406c.02 0 .033 0 .053.013l.053.013.047-.193.04.08.053.14.067.013c.027 0 .047.013.067.02l-.02-.047c-.027-.067-.067-.127-.087-.193.067 0 .127-.02.14-.08.007-.04 0-.067-.047-.1-.027-.02-.08-.027-.113-.033l-.16-.033-.093.4zm.2-.346c.047.013.1.02.1.067v.033c-.02.06-.067.08-.133.06l.033-.16zm.534.466-.013.133.053.033.06.033.033-.467a.189.189 0 0 1-.048-.021l.001.001-.407.253.033.02.027.013.113-.08.153.087zm-.114-.1.133-.093-.013.153-.12-.067z"/><path fill="#ad1519" style="fill:var(--color8,#ad1519)" d="M13.713 11.693c.42 0 .8.067 1.047.16a2.08 2.08 0 0 0 .98.153l-.008.001c.18 0 .433.053.687.16.189.082.352.188.495.315l-.002-.002-.1.093-.027.253-.273.313-.133.12-.333.26-.167.013-.047.14-2.107-.247-2.113.247-.053-.14-.167-.013-.327-.267-.133-.113-.273-.313-.033-.253-.1-.093c.143-.126.308-.231.488-.309l.012-.005c.199-.095.432-.153.678-.16h.002c.133.013.28.007.44-.013.197-.022.378-.069.547-.138l-.013.005c.247-.1.6-.167 1.033-.167z"/><path fill="#c8b100" style="fill:var(--color9,#c8b100)" d="M13.747 14.473c-.787 0-1.493-.093-1.993-.24a.074.074 0 0 1-.054-.071l.001-.01c0-.033.02-.067.053-.08a7.108 7.108 0 0 1 2-.24h-.007c.78 0 1.487.093 1.987.24a.087.087 0 0 1 0 .16h-.001c-.5.147-1.2.24-1.987.24"/><path fill="#ad1519" style="fill:var(--color8,#ad1519)" d="M13.74 14.373c-.707 0-1.347-.08-1.833-.207.487-.133 1.127-.2 1.833-.207l.098-.001c.618 0 1.219.073 1.795.211l-.052-.011c-.487.133-1.133.213-1.84.213z"/><path fill="#c8b100" style="fill:var(--color9,#c8b100)" d="M13.733 13.827h-.081c-.683 0-1.344.095-1.97.273l.051-.012c.04-.02.033-.067-.02-.2-.067-.167-.16-.16-.16-.16.553-.167 1.333-.267 2.187-.267l.122-.001c.739 0 1.454.098 2.135.281l-.057-.013s-.1-.007-.167.153c-.053.133-.053.187-.013.2-.5-.147-1.227-.247-2.02-.247"/><path fill="#c8b100" style="fill:var(--color9,#c8b100)" d="M13.74 13.46c-.86 0-1.633.1-2.187.267a.06.06 0 0 1-.024.004.067.067 0 0 1-.063-.044c-.002-.007-.004-.014-.004-.022 0-.031.021-.057.05-.065a7.893 7.893 0 0 1 2.233-.28h-.006c.88 0 1.68.113 2.233.28.04.013.06.053.047.087s-.053.053-.087.04c-.56-.167-1.333-.267-2.193-.267"/><path fill="#ad1519" style="fill:var(--color8,#ad1519)" d="M13.74 13.707h-.207a.067.067 0 0 1 0-.134h.427c.033 0 .067.033.067.067s-.033.067-.067.067h-.213"/><path fill="#058e6e" style="fill:var(--color11,#058e6e)" d="m12.687 13.767-.153.013c-.04.007-.067-.02-.08-.053v-.007c0-.037.03-.067.067-.067l.147-.02.16-.02c.033 0 .067.02.073.06.007.033-.02.067-.06.067l-.153.027M14.8 13.767l.153.013c.033.007.067-.02.073-.053v-.007a.066.066 0 0 0-.06-.066l-.147-.02-.16-.02h-.007a.066.066 0 0 0-.066.06c-.007.033.02.067.06.067l.153.027"/><path fill="#fff" style="fill:var(--color10,#fff)" d="M14.22 13.653a.067.067 0 1 1 .134 0 .067.067 0 0 1-.134 0m1.053.127c0-.04.033-.067.067-.067.04 0 .073.027.073.067a.067.067 0 0 1-.134 0"/><path fill="#c8b100" style="fill:var(--color9,#c8b100)" d="m12.153 12.253.093.067.133-.213a.494.494 0 0 1-.24-.482v.002c.013-.273.347-.507.78-.507.22 0 .42.067.567.16 0-.04 0-.08.013-.12-.16-.088-.35-.14-.553-.14h-.028.001c-.493 0-.88.273-.9.607a.59.59 0 0 0 .199.506l.001.001-.067.12z"/><path fill="#c8b100" style="fill:var(--color9,#c8b100)" d="M12.16 12.253a.622.622 0 0 1-.267-.486v-.001c0-.213.133-.407.353-.533a.567.567 0 0 0-.227.453v.002c0 .177.077.335.199.444l.001.001-.06.12z"/><path fill="#c8b100" style="fill:var(--color9,#c8b100)" d="M10.673 12.473a.58.58 0 0 1-.153-.393c0-.087.02-.173.067-.253.133-.28.56-.48 1.067-.48.133 0 .267.013.393.04l-.067.093a1.668 1.668 0 0 0-.301-.027h-.027.001c-.467 0-.853.18-.967.42a.463.463 0 0 0-.047.203v.003c.001.15.071.284.179.373l.001.001-.173.273-.087-.067.113-.187z"/><path fill="#c8b100" style="fill:var(--color9,#c8b100)" d="M10.847 11.553a.701.701 0 0 0-.265.27l-.002.004a.555.555 0 0 0-.06.253c0 .153.06.287.153.393l-.1.167a.688.688 0 0 1-.153-.433c0-.267.167-.5.427-.653zM13.733 10.96c.113 0 .213.073.233.173.02.093.027.193.027.3v.073c.007.22.04.42.087.54l-.347.333-.347-.333c.047-.12.08-.32.087-.54v-.073c0-.107.013-.207.027-.3.02-.1.12-.173.233-.173z"/><path fill="#c8b100" style="fill:var(--color9,#c8b100)" d="M13.733 11.067c.067 0 .113.04.12.093.013.08.027.173.027.28v.067c.007.213.04.4.08.513l-.227.213-.227-.213c.047-.113.073-.3.08-.513v-.067c.002-.1.012-.197.028-.291l-.002.011a.134.134 0 0 1 .12-.093zM15.313 12.253l-.087.067-.133-.213a.492.492 0 0 0 .24-.42l.001-.03-.001-.031v.001c-.013-.273-.353-.507-.78-.507h-.024c-.202 0-.39.06-.547.163l.004-.002a1.545 1.545 0 0 0-.014-.129l.001.009c.16-.088.35-.14.553-.14h.028-.001c.493 0 .88.273.893.607a.59.59 0 0 1-.199.506l-.001.001.067.12z"/><path fill="#c8b100" style="fill:var(--color9,#c8b100)" d="M15.307 12.253a.606.606 0 0 0 .273-.486v-.001c0-.213-.14-.407-.353-.533a.567.567 0 0 1 .227.453.595.595 0 0 1-.212.446l-.001.001.067.12z"/><path fill="#c8b100" style="fill:var(--color9,#c8b100)" d="M16.8 12.473a.585.585 0 0 0 .147-.388v-.006a.587.587 0 0 0-.062-.257l.002.003c-.133-.28-.56-.48-1.067-.48h-.009c-.139 0-.274.015-.404.042l.013-.002.067.093c.091-.017.195-.027.301-.027h.034-.002c.467 0 .853.18.96.42a.452.452 0 0 1 .047.207v.001a.485.485 0 0 1-.173.372l-.001.001.167.273.087-.067-.113-.187z"/><path fill="#c8b100" style="fill:var(--color9,#c8b100)" d="M16.62 11.553a.715.715 0 0 1 .265.27l.002.004a.582.582 0 0 1 .06.253.587.587 0 0 1-.154.394l.107.167a.688.688 0 0 0 .153-.433c0-.267-.173-.5-.433-.653z"/><path fill="#fff" style="fill:var(--color10,#fff)" d="M13.613 12.093c0-.067.053-.12.12-.12s.127.053.127.12-.06.113-.127.113a.12.12 0 0 1-.12-.113z"/><path fill="#fff" style="fill:var(--color10,#fff)" d="M13.613 11.867c0-.067.053-.12.12-.12s.127.053.127.12-.06.113-.127.113a.12.12 0 0 1-.12-.113m.027-.247c0-.047.04-.087.093-.087s.1.04.1.087c0 .053-.047.093-.1.093s-.093-.04-.093-.093m.027-.22a.067.067 0 1 1 .134 0 .067.067 0 0 1-.134 0m.013-.187c0-.033.027-.053.053-.053.033 0 .06.02.06.053 0 .027-.027.053-.06.053a.053.053 0 0 1-.053-.053"/><path fill="#c8b100" style="fill:var(--color9,#c8b100)" d="m13.747 12.787.08.013a.307.307 0 0 0 .292.4H14.128a.313.313 0 0 0 .291-.198L14.42 13c.007 0 .033-.113.047-.113s.007.12.013.113c.02.153.16.253.313.253h.008a.307.307 0 0 0 .307-.307l-.001-.028v.001l.1-.1.047.133a.262.262 0 0 0-.027.117v.011-.001c.007.156.136.28.293.28h.007c.107 0 .2-.047.253-.127l.06-.08v.1c0 .1.04.187.133.2 0 0 .113.007.267-.107.14-.113.22-.207.22-.207l.013.113s-.12.187-.253.267c-.067.04-.18.087-.267.067-.093-.013-.16-.087-.2-.173a.448.448 0 0 1-.219.067h-.016c-.172 0-.32-.1-.39-.244l-.001-.003a.466.466 0 0 1-.693-.019l-.001-.001a.467.467 0 0 1-.306.12h-.001a.46.46 0 0 1-.378-.198l-.001-.002a.462.462 0 0 1-.379.2h-.002a.47.47 0 0 1-.313-.12.465.465 0 0 1-.694.021.435.435 0 0 1-.391.247h-.009a.448.448 0 0 1-.229-.068l.002.001c-.04.087-.1.16-.2.18-.08.013-.193-.033-.267-.073-.133-.08-.253-.267-.253-.267l.013-.113s.08.093.227.207c.147.12.26.107.26.107.093-.013.133-.1.133-.2v-.1l.067.08a.306.306 0 0 0 .246.133c.167 0 .3-.133.3-.287l.001-.016a.264.264 0 0 0-.028-.119l.001.002.053-.127.1.1-.001.02.001.021v-.001c0 .16.133.293.307.293.16 0 .293-.1.313-.253 0 0 0-.107.013-.113.013 0 .04.113.047.107.045.122.16.207.295.207h.014a.307.307 0 0 0 .292-.403l.001.002.08-.013"/><path fill="#fff" style="fill:var(--color10,#fff)" d="M15.907 13.18c.02-.053 0-.107-.04-.12-.033-.013-.08.02-.1.073s0 .107.04.12c.033.013.08-.02.1-.073m-1.367-.267c0-.053-.02-.107-.067-.107-.033-.007-.067.033-.08.093-.007.053.02.1.06.107.04 0 .08-.04.087-.093m-1.593 0c0-.053.027-.107.067-.107.04-.007.073.033.08.093.007.053-.02.1-.06.107-.04 0-.073-.04-.08-.093m-1.374.267c-.013-.053 0-.107.04-.12s.08.02.1.073c.02.053 0 .107-.033.12-.04.013-.087-.02-.107-.073"/><path fill="#c8b100" style="fill:var(--color9,#c8b100)" d="M12.18 12.267a.34.34 0 0 1 .146.191l.001.002s0-.02.04-.04.067-.02.067-.02l-.007.087-.02.147a.45.45 0 0 1-.048.109l.001-.002a.124.124 0 0 0-.08-.028l-.021.002h.001a.125.125 0 0 0-.08.059v.001s-.047-.04-.08-.087l-.073-.133-.047-.073s.033-.013.073 0c.04 0 .053.013.053.013l-.001-.027c0-.075.025-.145.068-.2l-.001.001m.028.651a.122.122 0 0 1-.04-.066v-.001c0-.033 0-.06.02-.08 0 0-.06-.033-.12-.047-.047-.013-.133-.013-.153-.013h-.067l.013.033a.108.108 0 0 0 .033.047.334.334 0 0 0-.199.132l-.001.001c.057.042.13.068.208.068l.027-.001h-.001l-.013.053v.04l.067-.027c.02-.007.1-.033.133-.067.053-.027.1-.073.1-.073m.18-.032a.11.11 0 0 0 .015-.055l-.002-.019v.001a.11.11 0 0 0-.04-.066l.093-.087a.665.665 0 0 1 .129-.059l.005-.001.073-.027v.04a.381.381 0 0 1-.014.056l.001-.003.025-.001a.33.33 0 0 1 .202.068l-.001-.001a.337.337 0 0 1-.191.133l-.002.001a.42.42 0 0 0 .047.081l-.001-.001h-.067c-.027 0-.107 0-.153-.013s-.086-.03-.124-.049l.004.002"/><path fill="#ad1519" style="fill:var(--color8,#ad1519)" d="M12.147 12.827c0-.067.067-.133.133-.133s.147.067.147.133c0 .073-.067.133-.14.133h-.007a.133.133 0 0 1-.133-.133"/><path fill="#c8b100" style="fill:var(--color9,#c8b100)" d="M13.74 12.053c.07.062.116.148.127.245v.002s.013-.02.06-.033c.047-.02.08-.013.08-.013l-.033.093-.053.16a.52.52 0 0 1-.068.115l.001-.001a.14.14 0 0 0-.105-.047h-.009c-.04 0-.08.02-.107.047 0 0-.04-.047-.067-.113l-.053-.16-.033-.093.08.013c.047.013.06.033.06.033a.35.35 0 0 1 .12-.247"/><path fill="#c8b100" style="fill:var(--color9,#c8b100)" d="M13.64 12.787a.131.131 0 0 1-.033-.08c0-.033.007-.067.027-.087 0 0-.053-.047-.12-.067a.448.448 0 0 0-.167-.047l-.08-.013.013.04.027.06a.398.398 0 0 0-.247.113.38.38 0 0 0 .247.107l-.027.067-.013.04.08-.013c.027-.007.12-.027.167-.047a.802.802 0 0 0 .127-.067m.199 0a.127.127 0 0 0 .007-.173s.06-.047.12-.067a.51.51 0 0 1 .164-.046h.002l.08-.02-.007.047-.027.06c.093 0 .18.053.24.113a.394.394 0 0 1-.239.107h-.001c.008.04.019.076.034.11l-.001-.003-.08-.013-.167-.047c-.067-.027-.12-.067-.12-.067m1.468-.534a.347.347 0 0 0-.146.198l-.001.002-.047-.04c-.04-.02-.067-.02-.067-.02l.013.087c0 .02 0 .087.02.147.013.067.04.107.04.107a.135.135 0 0 1 .101-.027h-.001c.04.007.067.033.087.06l.073-.087a.526.526 0 0 0 .073-.133l.047-.073s-.027-.013-.067 0c-.047 0-.067.013-.067.013l.001-.027a.324.324 0 0 0-.068-.2l.001.001m-.018.652a.14.14 0 0 0 .04-.067.111.111 0 0 0-.013-.081s.053-.033.113-.047c.047-.013.133-.013.153-.013h.073l-.02.033a.357.357 0 0 1-.028.048l.001-.002c.08.02.148.068.193.132l.001.001a.352.352 0 0 1-.208.068l-.027-.001h.001l.013.053v.04l-.067-.027a.48.48 0 0 1-.133-.067c-.053-.027-.093-.073-.093-.073m-.186-.03a.114.114 0 0 1-.015-.056l.001-.018v.001c0-.033.02-.053.04-.067 0 0-.04-.053-.093-.087a.698.698 0 0 0-.133-.06c-.099-.036-.121-.045-.143-.054l.076.028v.04c0 .033.013.053.013.053l-.027-.001a.345.345 0 0 0-.207.068l.001-.001c.047.06.113.113.2.133 0 0-.02.013-.033.047l-.02.033h.067c.027 0 .113 0 .153-.013a.745.745 0 0 0 .124-.049l-.004.002"/><path fill="#ad1519" style="fill:var(--color8,#ad1519)" d="M15.067 12.827c0-.067.067-.133.133-.133s.14.067.14.133c0 .074-.06.133-.133.133H15.2a.133.133 0 0 1-.133-.133m1.546.293c-.027-.033-.093-.027-.147.013-.053.047-.067.107-.033.147.033.033.1.027.153-.02.047-.04.067-.107.033-.133"/><path fill="#c8b100" style="fill:var(--color9,#c8b100)" d="m16.42 13.2.047-.067c.047-.04.12-.047.153-.013l.007.013s.067-.133.153-.173c.087-.047.227-.033.227-.033a.187.187 0 0 0-.187-.187h-.018a.199.199 0 0 0-.149.067l-.013-.067s-.087.02-.127.12c-.04.1 0 .24 0 .24s-.02-.06-.047-.1a.509.509 0 0 0-.157-.105l-.003-.001-.087-.047-.007.033-.001.027.001.028v-.001a.525.525 0 0 0-.25.034l.004-.001a.314.314 0 0 0 .165.146l.002.001-.053.047a.403.403 0 0 0-.026.032l-.001.001.087.013.167.013a.881.881 0 0 0 .119-.014l-.006.001m-5.353 0c0-.027-.02-.047-.047-.067-.047-.047-.113-.053-.147-.02l-.013.02s-.067-.133-.153-.18c-.08-.047-.22-.033-.22-.033 0-.103.084-.187.187-.187.067 0 .127.027.16.067l.013-.067s.087.02.133.12c.033.1-.007.24-.007.24s.02-.06.053-.1a.509.509 0 0 1 .157-.105l.003-.001.087-.047v.087a.525.525 0 0 1 .25.034l-.004-.001a.314.314 0 0 1-.165.146l-.002.001.053.047.027.033-.08.013-.173.013a1.078 1.078 0 0 1-.119-.014l.006.001"/><path fill="#ad1519" style="fill:var(--color8,#ad1519)" d="M10.867 13.12c.04-.033.107-.027.16.02.047.04.067.1.027.133-.033.04-.1.033-.147-.013-.053-.04-.067-.107-.033-.133m2.733-.42c0-.073.06-.133.133-.133s.14.06.14.133c0 .067-.067.133-.133.133h-.007a.133.133 0 0 1-.133-.133"/><path fill="#c8b100" style="fill:var(--color9,#c8b100)" d="M13.667 9.953v.147h-.16v.147h.153v.42h-.193l-.013.04c0 .04.007.073.02.107h.527a.283.283 0 0 0 .02-.107l-.013-.04h-.187v-.42h.153V10.1h-.153v-.147h-.16z"/><path fill="#ccc" style="fill:var(--color13,#ccc)" d="M13.767 22.04a5.452 5.452 0 0 1-2.399-.561l.032.014a1.514 1.514 0 0 1-.853-1.36V18h6.427v2.133a1.515 1.515 0 0 1-.844 1.356l-.009.004a5.328 5.328 0 0 1-2.353.547h-.001z"/><path fill="#c7b500" style="fill:var(--color14,#c7b500)" d="M11.96 21.647a1.79 1.79 0 0 0 .382-.001l-.008.001V17.92h-.373v3.733z"/><path fill="#c8b100" style="fill:var(--color9,#c8b100)" d="m14.34 19.607.007.033c0 .04-.033.067-.073.067h-.007a.067.067 0 0 1-.067-.067v-.033h-.1a.168.168 0 0 0 .119.193h.001v.26h.107v-.26a.174.174 0 0 0 .113-.105v-.001h.293v-.08h-.4zm1.447.006v.08h-.267a.174.174 0 0 1-.02.041v-.001l.307.347-.08.067-.307-.353-.013.007v.58H15.3v-.58h-.013l-.32.347-.08-.067.313-.353a.158.158 0 0 1-.013-.026v-.001h-.267v-.1h.867zm.173 0v.08h.293c.02.053.06.093.113.107v.26h.107v-.26a.167.167 0 0 0 .12-.16l.001-.017-.001-.017v.001h-.107l.007.033c0 .04-.033.067-.067.067-.047 0-.08-.027-.08-.067v-.004c0-.011.003-.021.007-.03h-.393zm-.447 1.467c.092-.013.175-.037.254-.069l-.007.003.053.093a1.128 1.128 0 0 1-.28.079l-.006.001a.174.174 0 0 1-.169.133h-.005a.173.173 0 0 1-.166-.132v-.001a1.16 1.16 0 0 1-.314-.083l.008.003.053-.093c.087.033.173.06.267.067a.168.168 0 0 1 .099-.086h.001v-.447h.107v.447a.165.165 0 0 1 .107.093zm-.733-.147-.053.093a1.105 1.105 0 0 1-.239-.205l-.001-.001c-.06.013-.12 0-.167-.033a.162.162 0 0 1-.02-.234l.007-.007a.988.988 0 0 1-.086-.316v-.004h.113a.857.857 0 0 0 .069.272l-.002-.006c.033 0 .067 0 .093.013l.273-.3.087.067-.273.3a.173.173 0 0 1-.007.187c.06.066.128.123.203.171l.004.002zm-.4-.32c.02-.027.067-.033.1 0s.033.067.007.093a.08.08 0 0 1-.107.007.066.066 0 0 1 0-.1zm-.147-.3-.107-.02-.02-.287.113-.04v.167c0 .067 0 .12.013.18zm.094-.353.113.027v.147c0-.053.02.14.02.14l-.113.04a.908.908 0 0 1-.02-.179v-.174zm.373.913c.091.073.197.132.313.171l.007.002.027-.107a.906.906 0 0 1-.269-.135l.003.002-.08.067zm-.053.094c.092.071.198.13.312.171l.008.003-.08.073a1.249 1.249 0 0 1-.271-.136l.005.003.027-.113zm.146-.627.107.047.2-.22-.067-.093-.24.267zm-.086-.067-.067-.093.2-.22.107.047-.24.267zm1.206.66.053.093c.092-.059.171-.127.239-.205l.001-.001c.06.013.12 0 .167-.033a.159.159 0 0 0 .061-.126.166.166 0 0 0-.041-.108l-.007-.007a.963.963 0 0 0 .086-.316v-.004h-.113a.884.884 0 0 1-.069.272l.002-.006-.019-.001a.194.194 0 0 0-.076.015h.001l-.273-.3-.087.067.273.3a.159.159 0 0 0 .007.187c-.06.066-.128.123-.203.171l-.004.002zm.4-.32c-.014-.011-.031-.018-.05-.018s-.036.007-.05.018a.066.066 0 0 0-.007.093.08.08 0 0 0 .107.007.066.066 0 0 0 0-.1zm.147-.3.107-.02.02-.287-.113-.04v.167c0 .067 0 .127-.013.187zm-.093-.353-.113.027v.147c0-.053-.02.14-.02.14l.113.04.02-.18v-.173zm-.374.913a1.022 1.022 0 0 1-.313.171l-.007.002-.027-.107a.906.906 0 0 0 .269-.135l-.003.002.08.067zm.054.094a1.15 1.15 0 0 1-.312.171l-.008.003.08.073c.102-.037.19-.082.271-.136l-.005.003-.027-.113zm-.147-.627-.107.047-.193-.22.067-.093.233.267zm.087-.067.067-.093-.2-.22-.107.047.24.267zm-1.34-.58.033.107h.3l.033-.107h-.367zm1.406 0-.033.107h-.3l-.033-.107h.367zm-.773 1.46c0-.04.033-.067.073-.067h.007a.067.067 0 1 1 0 .134h-.007a.073.073 0 0 1-.073-.067zm.127-.52.113-.027v-.287l-.113-.033v.347zm-.107 0-.113-.027v-.287l.113-.033v.347z"/><path fill="#c8b100" style="fill:var(--color9,#c8b100)" d="M14.1 19.613c.013-.067.067-.107.12-.133v-.347h.107v.353c.053.02.1.06.113.107h.293v.02h-.4a.081.081 0 0 0-.067-.04c-.027 0-.047.02-.067.04h-.1zm.813 0v-.02h.273a.101.101 0 0 1 .014-.02l-.333-.38.08-.067.333.373.013-.007v-.493h.107v.487h.02l.327-.367.08.067-.327.367.02.04h.267v.02h-.867zm1.44 0a.073.073 0 0 1 .065-.04h.001c.033 0 .053.02.067.04h.107c-.013-.067-.06-.107-.12-.133v-.347h-.107v.353a.18.18 0 0 0-.113.107h-.293v.02h.4zm-2.006-1 .4.453.087-.067-.407-.447.02-.04h.293v-.113h-.293a.173.173 0 0 0-.163-.113h-.011a.173.173 0 0 0-.173.166c0 .075.05.139.119.16h.001v.347h.107v-.347h.02zm2.133 0v.353h-.113v-.347a.17.17 0 0 1-.027-.014h.001l-.4.453-.087-.067.413-.46-.007-.02h-.3v-.113h.3a.173.173 0 0 1 .16-.113h.007c.093 0 .17.074.173.166a.167.167 0 0 1-.125.16h-.001zm-1.073 0v.22h-.113v-.213a.174.174 0 0 1-.113-.105v-.001h-.267v-.113h.267a.173.173 0 0 1 .163-.113h.004c.08 0 .147.047.167.113h.267v.107h-.267a.166.166 0 0 1-.105.106h-.001zm-1.187.267-.113.027v.287l.113.033v-.347zm.107 0 .113.027v.287l-.113.033v-.347zm2.04 0-.113.027v.287l.113.033v-.347zm.106 0 .113.027v.287l-.113.033v-.347zm-1.7.053.107-.047.193.22-.067.093-.233-.267zm-.086.067-.067.093.2.22.107-.047-.24-.267zm1.233-.073-.107-.047-.2.22.067.093.24-.267zm.08.066.067.093-.2.22-.1-.047.233-.267zm-1.353.6.033-.107h.3l.033.107h-.367zM14.2 18.46c0-.04.033-.067.08-.067.037 0 .067.03.067.067 0 .04-.027.067-.067.067h-.007a.073.073 0 0 1-.073-.067zm.807.053-.033.107h-.3l-.033-.107h.367zm0-.106-.033-.107h-.3l-.033.107h.367zm1.046 1.186-.033-.107h-.3l-.033.107h.367zm.294-1.133c0-.04.033-.067.073-.067h.007a.067.067 0 1 1 0 .134h-.007a.073.073 0 0 1-.073-.067zm-1.074 0c0-.04.033-.067.073-.067h.007c.037 0 .067.03.067.067 0 .04-.033.067-.073.067a.074.074 0 0 1-.073-.066zm.414.053.033.107h.307l.033-.107h-.373zm0-.106.033-.107h.307l.033.107h-.373zm-.394.333-.113.033v.287l.113.033v-.36zm.114-.007.107.033v.287l-.107.033v-.353z"/><path fill="#058e6e" style="fill:var(--color11,#058e6e)" d="M15.18 19.647a.173.173 0 0 1 .346-.001.173.173 0 0 1-.173.16h-.001c-.093 0-.173-.067-.173-.16z"/><path fill="#db4446" style="fill:var(--color15,#db4446)" d="M15.393 15.313v-.04l.007-.02-.153-.007a.404.404 0 0 1-.154-.08h.001c-.053-.047-.073-.067-.107-.08-.087-.013-.153.027-.153.027s.067.027.113.087.1.087.12.093c.04.013.173 0 .207.007l.12.013z"/><path fill="#ed72aa" style="fill:var(--color16,#ed72aa)" d="M15.873 15.167v.093c.013.04-.007.08 0 .1 0 .027.007.04.02.06l.013.06-.047-.033-.04-.027v.067c.007.013.02.053.04.073l.067.087c.013.033.007.093.007.093s-.027-.047-.053-.053l-.08-.047s.047.053.047.1c0 .053-.02.107-.02.107s-.02-.047-.053-.073l-.067-.06s.027.08.027.133V16l-.06-.067-.067-.047c0-.013.033.04.04.073 0 .033.02.153.12.3.067.087.153.24.353.193.2-.053.127-.32.087-.447a1.093 1.093 0 0 1-.066-.303v-.004c0-.053.04-.193.033-.22a.5.5 0 0 1 .014-.211l-.001.004c.027-.087.047-.12.06-.153.013-.04.027-.06.027-.087l.007-.087.047.087.007.1s.007-.067.067-.107c.053-.04.12-.073.133-.093.02-.02.02-.033.02-.033s0 .12-.04.173l-.113.133s.047-.02.08-.02h.06s-.04.027-.093.107c-.053.067-.033.08-.067.14-.04.067-.067.067-.113.1-.067.053-.033.28-.027.313.013.033.133.3.133.367s.013.213-.1.307c-.073.067-.2.067-.227.08-.027.02-.08.073-.08.187s.04.133.067.16c.04.033.08.013.087.04.013.02.013.033.033.047.013.013.02.027.013.053 0 .02-.053.073-.073.113l-.053.16c0 .013-.007.067.007.087 0 0 .06.067.02.08-.027.013-.053-.013-.067-.013l-.06.033c-.02-.007-.02-.02-.027-.053l-.007-.047c-.013 0-.02.013-.027.033 0 .013 0 .053-.02.053-.013 0-.033-.027-.053-.033-.013 0-.053-.013-.053-.027 0-.02.027-.06.047-.067.027 0 .053-.02.033-.033s-.033-.013-.047 0-.053 0-.047-.013v-.053c0-.013-.027-.033.007-.053.04-.02.053.013.093.007.04 0 .053-.02.067-.04s.013-.067-.013-.093c-.027-.033-.047-.033-.06-.053l-.02-.06v.147l-.047-.053c-.02-.02-.04-.087-.04-.087v.087c0 .027.02.047.013.053s-.053-.047-.067-.053a.23.23 0 0 1-.066-.066l-.001-.001-.027-.093a.257.257 0 0 1 0-.102v.002l.027-.067h-.093c-.047 0-.08-.02-.1.013s-.013.1.013.187c.02.08.033.127.027.14a.214.214 0 0 1-.046.053h-.06a.16.16 0 0 0-.079-.02h-.088l-.073-.02c-.02.007-.053.02-.04.047.013.04-.013.047-.033.047l-.06-.013c-.027-.007-.06 0-.053-.027 0-.027.013-.027.027-.047s.013-.033 0-.033h-.04c-.013.013-.033.033-.053.027-.013-.007-.027-.027-.027-.067s-.047-.08 0-.073c.033 0 .087.027.093 0 .013-.02 0-.027-.013-.047s-.053-.027-.02-.047l.047-.033c.007-.013.027-.053.047-.04.04.013 0 .047.04.087.04.047.067.067.133.053.067 0 .087-.013.087-.033l-.007-.067V16.8s-.027.02-.033.04l-.027.053v-.133a.53.53 0 0 0-.014-.057l.001.004-.02.06-.007.067s-.047-.033-.033-.1c.007-.047-.007-.107.007-.133.013-.02.047-.1.133-.107h.173l.133-.02s-.187-.093-.233-.127a.635.635 0 0 1-.132-.132l-.001-.002-.04-.107s-.033 0-.067.02a.37.37 0 0 0-.08.066l-.047.067.007-.08v-.053s-.027.08-.067.113l-.093.067v-.053l.013-.067s-.027.053-.073.067c-.047 0-.12 0-.127.027 0 .033.013.067 0 .093 0 .02-.027.033-.027.033l-.053-.027c-.027 0-.047.013-.047.013s-.02-.027-.013-.047c.007-.013.047-.04.033-.053l-.053.013c-.02.007-.053.02-.053-.013 0-.027.013-.047 0-.067 0-.02 0-.033.013-.04l.08-.007c0-.013-.013-.033-.053-.04s-.053-.033-.033-.053c.02-.013.02-.02.033-.04.007-.013.013-.047.047-.033.033.02.027.053.067.067a.263.263 0 0 0 .135-.014l-.002.001.2-.133-.067-.053c-.02-.02-.047-.06-.067-.067a.51.51 0 0 0-.116-.039l-.004-.001a.572.572 0 0 1-.117-.035l.004.001.053-.02c.013-.013.04-.04.053-.04h-.073c-.02-.007-.067-.04-.087-.04l-.053.007s.053-.027.093-.033l.067-.007s-.06-.02-.073-.04l-.04-.067c-.013-.007-.02-.033-.04-.033l-.067.02c-.027 0-.04-.013-.04-.04l-.007-.033c-.013-.02-.04-.053-.013-.067h.093c0-.013-.033-.04-.053-.053-.027-.013-.067-.033-.047-.053l.053-.033c.013-.02.02-.067.047-.047.027.013.053.08.073.073.02 0 .02-.053.02-.067 0-.027 0-.067.013-.06.02 0 .033.027.067.033.027 0 .067-.007.067.013s-.02.047-.04.067c-.02.02-.027.067-.02.093.013.033.047.08.08.093.027.02.08.033.113.06.033.02.113.08.14.087l.053.027s.033-.013.073-.013c.047 0 .14 0 .173-.013.04-.013.087-.04.067-.067-.007-.04-.087-.067-.08-.093 0-.027.033-.027.08-.027.053 0 .12.007.133-.067.013-.067.013-.1-.053-.12-.067-.013-.12-.013-.133-.067-.013-.047-.027-.06-.013-.073.02-.013.04-.02.093-.027.053 0 .107 0 .127-.013.013-.013.02-.047.04-.06s.093-.027.093-.027.093.047.18.113c.054.043.102.088.146.139l.001.001"/><path style="fill:var(--color6,#000)" d="M15.467 15.027V15s.047 0 .067.02c.033.027.06.067.06.067l-.053-.027h-.033l-.02-.007v-.02h-.02z"/><path fill="#db4446" style="fill:var(--color15,#db4446)" d="M14.493 15.107s.033.027.053.027h.053s.013-.033.007-.053c-.013-.08-.08-.093-.08-.093s.02.047.007.067a.14.14 0 0 1-.04.053zM14.347 15.173s-.027-.047-.087-.04c-.053 0-.093.053-.093.053h.08c.02.02.027.067.027.067l.047-.04a.418.418 0 0 0 .025-.038l.001-.002zM14.28 15.373s-.053.007-.08.04c-.027.033-.02.087-.02.087s.027-.033.06-.033l.067.013-.007-.053-.02-.053zM14.44 16.027s-.027-.033-.073-.02c-.047 0-.08.06-.08.06s.04-.013.067-.007.04.027.04.027l.027-.027.02-.04zM14.387 16.213s-.04 0-.073.02c-.033.027-.033.08-.033.08s.027-.027.053-.02l.06.013v-.04c.013-.027-.007-.053-.007-.053zM14.48 16.387s0 .053.02.087c.027.033.073.033.073.033l-.02-.047c0-.027.02-.053.02-.053s-.02-.02-.047-.02h-.047zM14.947 16.84s-.027-.04-.073-.04c-.047 0-.093.047-.093.047s.053-.007.067.013l.033.04.033-.02.033-.04zM14.813 17.02s-.067-.007-.093.02c-.027.033-.027.087-.027.087s.04-.04.067-.033c.033 0 .067.02.067.02v-.047l-.02-.047zM15.733 17.287s-.053-.013-.08 0c-.033.02-.053.093-.053.093s.047-.04.08-.033c.033 0 .067.02.067.02v-.053l-.013-.027zM15.76 17.48s-.04.04-.027.073l.04.067s0-.047.013-.067l.067-.02-.047-.033-.053-.023.006.003zM15.96 17.533s-.02.053.013.087c.04.033.067.033.067.033s-.02-.047-.013-.073a.073.073 0 0 1 .033-.047l-.053-.013-.047.02z"/><path fill="#ffd691" style="fill:var(--color17,#ffd691)" d="M13.92 21.093c.133.04.2.133.2.253 0 .153-.147.267-.333.267-.2 0-.353-.113-.353-.267 0-.113.067-.24.2-.253l-.013-.027-.047-.047h.08l.053.033.033-.047c.02-.027.04-.033.04-.033l.04.04.02.033.047-.027.053-.02s0 .027-.013.047l-.007.047"/><path fill="#058e6e" style="fill:var(--color11,#058e6e)" d="M13.753 21.78s-.253-.173-.367-.2c-.133-.027-.3 0-.367 0 0 0 .08.053.12.093.033.033.153.1.22.12.2.053.4-.013.4-.013m.068.013s.16-.167.333-.193c.2-.027.333.02.413.04l-.1.053c-.033.02-.133.1-.267.107-.133 0-.293-.02-.32-.013l-.06.007"/><path fill="#ad1519" style="fill:var(--color8,#ad1519)" d="M13.78 21.587a.322.322 0 0 1-.001-.473c.062.058.1.141.1.232v.006a.324.324 0 0 1-.1.235"/><path fill="#058e6e" style="fill:var(--color11,#058e6e)" d="M13.713 21.933s.04-.1.04-.18l-.007-.14h.053s.02.073.02.133l-.007.16-.047.007-.053.02"/><path fill="#fff" style="fill:var(--color10,#fff)" d="M17.093 12.347c0-.033.033-.067.067-.067.04 0 .073.033.073.067s-.033.067-.067.067h-.007a.067.067 0 0 1-.067-.067zM16.22 11.273c0-.033.033-.067.073-.067a.067.067 0 0 1 0 .134.067.067 0 0 1-.067-.067zM15.34 11.233c0-.04.033-.067.067-.067.04 0 .073.027.073.067s-.033.067-.067.067h-.007a.067.067 0 0 1-.067-.067zM15.447 11.413c0-.033.033-.067.067-.067.047 0 .073.033.073.067a.067.067 0 1 1-.134 0m.04.207c0-.04.027-.067.067-.067s.067.027.067.067a.067.067 0 0 1-.134 0m0 .2c0-.033.04-.067.073-.067a.067.067 0 0 1 0 .134.067.067 0 0 1-.067-.067m-.066.187c0-.033.033-.067.067-.067.047 0 .073.033.073.067 0 .04-.027.067-.067.067a.067.067 0 0 1-.067-.067m-.126.173c0-.033.033-.067.067-.067.047 0 .08.033.08.067s-.033.067-.073.067a.064.064 0 0 1-.067-.067M15.173 11.1c0-.033.033-.067.073-.067a.067.067 0 0 1 0 .134.067.067 0 0 1-.067-.067zM14.553 10.893c0-.033.033-.067.067-.067.04 0 .073.033.073.067s-.033.067-.067.067h-.007a.067.067 0 0 1-.067-.067zM13.907 11.007c0-.033.033-.067.067-.067.04 0 .073.033.073.067s-.033.067-.067.067h-.007a.067.067 0 0 1-.067-.067zM11.107 11.273c0-.033.033-.067.067-.067a.067.067 0 0 1 0 .134.067.067 0 0 1-.067-.067zM11.773 11.233c0-.04.033-.067.067-.067.04 0 .073.027.073.067s-.033.067-.067.067h-.007a.067.067 0 0 1-.067-.067zM11.88 11.413c0-.033.033-.067.067-.067.047 0 .073.033.073.067a.067.067 0 1 1-.134 0m-.046.207c0-.04.027-.067.067-.067s.067.027.067.067a.067.067 0 0 1-.134 0m-.013.2c0-.033.033-.067.067-.067.047 0 .073.033.073.067a.067.067 0 1 1-.134 0m.06.187c0-.033.033-.067.067-.067.04 0 .073.033.073.067 0 .04-.033.067-.067.067h-.007a.067.067 0 0 1-.067-.067m.121.173c0-.033.033-.067.067-.067a.067.067 0 0 1 0 .134.067.067 0 0 1-.067-.067M12.153 11.1c0-.033.033-.067.067-.067a.067.067 0 0 1 0 .134.067.067 0 0 1-.067-.067z"/><path fill="#c8b100" style="fill:var(--color9,#c8b100)" d="M11.647 15.26h-.067v-.067h-.1v.24h.107v.167h-.227v.467h.12v.953h-.233v.487h1.813v-.487h-.233v-.953h.12V15.6h-.227v-.167h.107V15.2h-.107v.06h-.053v-.067h-.107v.067h-.073v-.067h-.107v.24h.107v.167h-.22v-.52h.113v-.233h-.113v.06H12.2v-.067h-.1v.067h-.06v-.067h-.107v.24h.113v.52h-.22v-.167h.107V15.2h-.107v.06h-.06v-.067h-.12v.067zm-.4 2.247h1.82m-1.82-.12h1.82m-1.82-.12h1.82m-1.82-.114h1.82m-1.82-.133h1.82m-1.587-.107h1.347m-1.347-.12h1.347m-1.347-.133h1.347m-1.347-.113h1.347m-1.347-.12h1.347m-1.347-.12h1.347m-1.347-.114h1.347m-1.467-.12h1.587m-1.587-.12h1.587m-1.587-.12h1.587m-1.587-.12h1.587m-1.36-.113h1.133m-.68-.12h.227m-.227-.12h.227m-.227-.12h.227m-.227-.113h.227m-.34-.147h.453m-.8.5h.24m-.333-.147h.44m-.447 2.174v-.12m0-.12v-.113m-.12.113v.12m.227 0v-.12m.113.24v-.12m0-.12v-.113m0-.134v-.107m0-.12v-.133m-.113.493v-.133m-.227.133v-.133m.467 0v.133m.1-.133v-.107m-.34-.12v.12m.233-.12v.12m.22-.12v.12m-.107-.113v-.133m.114-.114v.113m0-.353v.12m-.114-.24v.12m.114-.233v.113m-.22-.113v.113m-.234-.113v.113m-.106-.233v.12m.22-.12v.12m.226-.12v.12m.114-.24v.12m-.22-.12v.12m-.234-.12v.12m-.106-.24v.12m.446-.12v.12m-.226-.353v.12m1.02-.12h-.233m.333-.147h-.44m.446 2.173v-.12m0-.12v-.113m.12.113v.12m-.226 0v-.127m-.114.241v-.12m0-.12v-.113m0-.134v-.107m0-.12v-.133m.114.493v-.133m.226.133v-.133m-.466 0v.133m-.1-.133v-.107m.34-.12v.12m-.234-.12v.12m-.22-.12v.12m.114-.12v-.133m-.114-.113v.113m0-.353v.12m.114-.24v.12m-.114-.234v.113m.22-.113v.113m.234-.113v.113m.106-.233v.12m-.22-.12v.12m-.226-.12v.12m-.114-.24v.12m.22-.12v.12m.234-.12v.12m.106-.24v.12m-.446-.12v.12m.226-.353v.12m-.466 1.2v-.133m0-.36v-.12m0 .36v-.12m0-.354v-.12m0-.12v-.113m0-.24v-.12m0-.113v-.12m-.554.306h.233m.221-.353h.227m.219.353h.233"/><path fill="#c8b100" style="fill:var(--color9,#c8b100)" d="m11.953 17.213-.147-.02c0-.06.013-.147.06-.173l.133.1a.157.157 0 0 0-.047.093zm.4 0 .147-.02c0-.06-.013-.147-.06-.173l-.133.1c.02.013.047.067.047.093zm-.146-.153.067-.133a.354.354 0 0 0-.133-.027l-.113.027.073.133h.107zm-.28-.367v-.327c0-.087-.067-.16-.167-.16s-.16.067-.16.16v.327h.327zm.453 0v-.327c0-.087.067-.16.167-.16s.16.067.16.16v.327h-.327zm-.113-.8.027-.293h-.28l.013.293h.24zm.22 0-.027-.293h.293l-.033.293h-.233zm-.667 0 .013-.293h-.28l.033.293h.233z"/><path fill="#0039f0" style="fill:var(--color18,#0039f0)" d="M12.353 17.507v-.267c0-.047-.033-.18-.207-.18a.182.182 0 0 0-.193.18v.267h.4zm-.46-.847v-.28c0-.067-.04-.147-.133-.147s-.133.073-.133.147v.287h.267zm.52 0v-.28c0-.067.047-.147.133-.147s.133.073.133.147v.287h-.267z"/><path fill="#c8b100" style="fill:var(--color9,#c8b100)" d="M13.413 17.393s-.087.093-.087.18a.396.396 0 0 0 .041.162l-.001-.002c-.013-.033-.053-.053-.093-.053-.053 0-.093.04-.093.087l.013.053.033.06c.007-.02.033-.033.067-.033s.067.027.067.067v.014h-.08v.067h.067l-.053.1.067-.027.053.06.053-.06.067.027-.047-.1h.067v-.067h-.073l-.001-.01.001-.01c0-.037.03-.067.067-.067.027 0 .047.02.067.04l.027-.067.013-.047a.094.094 0 0 0-.093-.087c-.047 0-.08.02-.093.06 0 0 .04-.08.04-.167s-.093-.18-.093-.18z"/><path fill="#c8b100" style="fill:var(--color9,#c8b100)" d="M13.28 17.993h.273v-.067h-.273v.067zM14.093 17.393s-.087.093-.087.18.04.16.04.16c-.013-.033-.047-.053-.093-.053-.053 0-.093.04-.093.087l.013.053.033.06c.013-.02.033-.033.067-.033.037 0 .067.03.067.067v.014h-.08v.067h.067l-.053.1.067-.027.053.06.053-.06.067.027-.047-.1h.067v-.067h-.073l-.001-.01.001-.01c0-.037.03-.067.067-.067.027 0 .053.02.067.04l.027-.067.013-.047a.094.094 0 0 0-.093-.087c-.04 0-.08.02-.093.06 0 0 .04-.08.04-.167s-.093-.18-.093-.18z"/><path fill="#c8b100" style="fill:var(--color9,#c8b100)" d="M13.96 17.993h.273v-.067h-.273v.067zM13.753 17.973s-.087.1-.087.187.04.16.04.16a.098.098 0 0 0-.093-.06.091.091 0 0 0-.093.093l.013.047.033.067c.007-.027.033-.04.067-.04.037 0 .067.03.067.067l.001.01-.001.01h-.08v.067h.067l-.053.1.067-.027.053.06.053-.067.067.033-.047-.1h.067v-.067h-.073l-.001-.01.001-.01c0-.037.03-.067.067-.067.027 0 .047.013.06.04l.033-.067.013-.047a.093.093 0 0 0-.093-.093.093.093 0 0 0-.093.067s.04-.08.04-.167-.093-.18-.093-.18z"/><path fill="#c8b100" style="fill:var(--color9,#c8b100)" d="M13.62 18.573h.273v-.067h-.273v.067zM15.84 14.893h-.02a.105.105 0 0 1-.02.027c-.013.013-.04.013-.053 0a.031.031 0 0 1-.007-.021l.001-.006c-.005.003-.011.004-.017.004s-.012-.002-.017-.005c-.02-.007-.02-.033-.007-.047v-.033h-.02l-.007.013c-.013.02-.033.02-.047.013l-.001-.007.001-.007h-.02c-.033.013-.047-.067-.047-.08l-.013.013s.013.047.007.08c0 .04-.02.08-.02.08a.598.598 0 0 1 .194.107l-.001-.001a.594.594 0 0 1 .145.151l.001.002.08-.033c.04-.013.087-.013.087-.013l.013-.013c-.02 0-.1.007-.1-.027v-.013h-.007l-.007-.001c-.013-.013-.013-.027 0-.047l.013-.007v-.02h-.02l-.013.007a.03.03 0 0 1-.053 0 .026.026 0 0 1-.008-.019l.001-.008c-.005.002-.011.004-.017.004s-.012-.001-.017-.004c-.013-.013-.02-.033 0-.053l.013-.02v-.02z"/><path style="fill:var(--color6,#000)" d="M15.693 14.933h.013v.02h-.007c-.007 0-.007-.013 0-.013zM15.753 14.987l-.02-.013v-.013h.007l.027.02.02.013v.013h-.013l-.02-.02zM15.64 14.913l-.013-.013s-.007 0 0-.007l.04.013v.013h-.007l-.02-.007zM15.58 14.867h.013v.013h-.013s-.007-.007 0-.013zM15.82 15.033v-.013h-.02l.007.013h.013zM15.86 15.08l.013.013h.007c.007 0 0-.007 0-.013l-.027-.027h-.007v.013l.013.013zM15.92 15.133v-.02h-.02v.013h.02z"/><path fill="#c8b100" style="fill:var(--color9,#c8b100)" d="M15.747 14.74h-.04l-.007.06v.007h.013l.047-.033-.02-.033z"/><path fill="#c8b100" style="fill:var(--color9,#c8b100)" d="M15.64 14.773v.033l.06.007h.007V14.8l-.033-.047-.033.02z"/><path fill="#c8b100" style="fill:var(--color9,#c8b100)" d="m15.76 14.84-.027.02-.04-.047v-.007h.073v.033z"/><path fill="#c8b100" style="fill:var(--color9,#c8b100)" d="M15.687 14.8c.004-.003.008-.005.013-.005s.01.002.013.005c.002.003.003.006.003.01s-.001.007-.003.01c-.003.002-.006.003-.01.003s-.007-.001-.01-.003a.021.021 0 0 1-.007-.015l.001-.005zM15.547 14.74l-.013-.047-.027-.027s.027-.013.053.007c.027.02 0 .06 0 .06l-.013.007z"/><path fill="#c8b100" style="fill:var(--color9,#c8b100)" d="m15.613 14.76-.027.027-.04-.04v-.013h.067v.027z"/><path fill="#c8b100" style="fill:var(--color9,#c8b100)" d="m15.54 14.733.02-.007v.02c0 .013-.007.013-.013.013l-.007-.02zM15.887 14.833h-.033l-.02.047v.013h.013l.053-.027-.013-.033z"/><path fill="#c8b100" style="fill:var(--color9,#c8b100)" d="M15.78 14.853v.033l.053.013h.007v-.013l-.027-.047-.033.013z"/><path fill="#c8b100" style="fill:var(--color9,#c8b100)" d="m15.893 14.933-.033.013-.027-.047v-.013h.007l.06.013-.007.033z"/><path fill="#c8b100" style="fill:var(--color9,#c8b100)" d="M15.82 14.88h.027c.003.004.005.008.005.013s-.002.01-.005.013c-.003.002-.006.003-.01.003s-.007-.001-.01-.003c-.003-.004-.005-.008-.005-.013s.002-.01.005-.013zM16.013 14.953l.007.033-.053.02h-.013v-.013l.027-.053.033.013z"/><path fill="#c8b100" style="fill:var(--color9,#c8b100)" d="m16 15.053-.033.007-.02-.053V15h.013l.053.02-.007.033z"/><path fill="#c8b100" style="fill:var(--color9,#c8b100)" d="m15.907 14.953-.013.033.06.02h.007v-.007l-.02-.053-.033.007z"/><path fill="#c8b100" style="fill:var(--color9,#c8b100)" d="M15.967 15.013c.002-.003.003-.006.003-.01s-.001-.007-.003-.01c-.004-.003-.008-.005-.013-.005s-.01.002-.013.005c-.002.003-.003.006-.003.01s.001.007.003.01c.004.003.008.005.013.005s.01-.002.013-.005zM16.053 15.133h.053l.033.02s.007-.027-.02-.047c-.02-.02-.053.013-.053.013l-.013.013z"/><path fill="#c8b100" style="fill:var(--color9,#c8b100)" d="m16.02 15.073-.02.033.053.033v-.007h.013l-.007-.067-.04.007z"/><path fill="#c8b100" style="fill:var(--color9,#c8b100)" d="M16.067 15.133s.007-.007 0-.013h-.02c-.013 0-.013.007-.007.013h.02z"/></symbol><symbol id="icon-film" viewBox="0 0 32 32"><path fill="none" stroke="#fff" style="stroke:var(--color10,#fff)" stroke-linejoin="round" stroke-linecap="round" stroke-width="2.667" d="M26.427 2.667H5.574a2.907 2.907 0 0 0-2.907 2.907v20.853a2.907 2.907 0 0 0 2.907 2.907h20.853a2.907 2.907 0 0 0 2.907-2.907V5.574a2.907 2.907 0 0 0-2.907-2.907zM9.333 2.667v26.667M22.667 2.667v26.667M2.667 16h26.667M2.667 9.333h6.667M2.667 22.667h6.667M22.667 22.667h6.667M22.667 9.333h6.667"/></symbol><symbol id="icon-gb" viewBox="0 0 43 32"><path fill="#012169" style="fill:var(--color19,#012169)" d="M0 0h42.667v32H0z"/><path fill="#fff" style="fill:var(--color10,#fff)" d="m5 0 16.267 12.067L37.467 0h5.2v4.133l-16 11.933 16 11.867V32h-5.333l-16-11.933L5.401 32h-5.4v-4l15.933-11.867L.001 4.266V-.001h5z"/><path fill="#c8102e" style="fill:var(--color20,#c8102e)" d="m28.267 18.733 14.4 10.6V32L24.6 18.733h3.667zM16 20.067l.4 2.333L3.6 32H0l16-11.933zM42.667 0v.2l-16.6 12.533L26.2 9.8 39.333 0h3.333zM0 0l15.933 11.733h-4L0 2.8V0z"/><path fill="#fff" style="fill:var(--color10,#fff)" d="M16.067 0v32h10.667V0H16.067zM0 10.667v10.667h42.667V10.667H0z"/><path fill="#c8102e" style="fill:var(--color20,#c8102e)" d="M0 12.867v6.4h42.667v-6.4H0zM18.2 0v32h6.4V0h-6.4z"/></symbol><symbol id="icon-icons8-github" viewBox="0 0 32 32"><path d="M16 5.333c5.891 0 10.667 4.776 10.667 10.667 0 4.736-3.088 8.749-7.36 10.141l.003-.01s-.72-.337-.705-.94c.017-.663 0-2.209 0-2.777 0-.975-.617-1.665-.617-1.665s4.837.054 4.837-5.107c0-1.992-1.041-3.028-1.041-3.028s.547-2.126-.189-3.028c-.825-.089-2.302.788-2.933 1.199 0 0-1-.41-2.663-.41s-2.663.41-2.663.41c-.631-.41-2.108-1.288-2.933-1.199-.736.902-.189 3.028-.189 3.028s-1.041 1.036-1.041 3.028c0 5.161 4.837 5.107 4.837 5.107s-.488.551-.594 1.36c-.338.115-.834.256-1.236.256-1.05 0-1.848-1.02-2.141-1.492-.288-.466-.88-.856-1.432-.856-.363 0-.54.182-.54.389s.509.352.845.737c.708.812.696 2.637 3.22 2.637.274 0 .834-.068 1.255-.124-.003.575-.003 1.181.006 1.535.015.602-.705.94-.705.94l.003.01C8.42 24.749 5.332 20.736 5.332 16c0-5.891 4.776-10.667 10.667-10.667z"/></symbol><symbol id="icon-love" viewBox="0 0 32 32"><path fill="#ff6b08" style="fill:var(--color21,#ff6b08)" d="m16 30.144-2.24-2.218C5.44 20.639 0 15.728 0 9.708 0 4.797 3.84.995 8.8.995c2.72 0 5.44 1.267 7.2 3.327C17.76 2.263 20.48.995 23.2.995c4.96 0 8.8 3.802 8.8 8.713 0 6.02-5.44 10.931-13.76 18.218L16 30.144z"/></symbol><symbol id="icon-search-2" viewBox="0 0 32 32"><path fill="none" stroke="#fff" style="stroke:var(--color10,#fff)" stroke-linejoin="round" stroke-linecap="round" stroke-width="2.667" d="M14.667 25.333c5.891 0 10.667-4.776 10.667-10.667S20.558 3.999 14.667 3.999 4 8.775 4 14.666s4.776 10.667 10.667 10.667zM28 28.001l-5.8-5.8"/></symbol><symbol id="icon-television" viewBox="0 0 32 32"><path d="M30.456 30.023H1.575v-18.79c0-.764.659-1.391 1.456-1.391H29c.812 0 1.456.627 1.456 1.391v18.79zm-.064-21.612h-9.319a8.54 8.54 0 0 0-3.714-1.544l5.209-5.202c.362-.361.419-.812 0-1.189-.627-.506-1.166.096-1.166.096L15.693 6.28c-.587.587-.86.184-.86.184s-3.996-3.995-4.374-4.333c-.378-.337-.868-.217-1.166.129-.418.522.097 1.061.097 1.061l3.891 3.868h.017c-.868.281-1.673.7-2.396 1.222H1.608C.724 8.411 0 9.135 0 10.019v21.708h32V10.02c0-.884-.717-1.608-1.608-1.608z"/><path d="M27.214 26.068a.742.742 0 0 1-.747.737H5.517a.744.744 0 0 1-.749-.737V13.976c0-.408.335-.739.749-.739h20.95c.413 0 .747.331.747.739v12.092zm.744-14.538H3.992c-.472 0-.856.411-.856.919v15.046c0 .507.383.918.856.918h23.966c.473 0 .856-.411.856-.918V12.449c0-.508-.383-.919-.856-.919z"/></symbol><symbol id="icon-ua" viewBox="0 0 43 32"><path fill="#ffd500" style="fill:var(--color22,#ffd500)" d="M0 0h42.667v32H0z"/><path fill="#005bbb" style="fill:var(--color23,#005bbb)" d="M0 0h42.667v16H0z"/></symbol></defs><symbol id="arrow-up" viewBox="0 0 32 32"><path d="m27.414 12.586-10-10a2 2 0 0 0-2.828 0l-10 10a2 2 0 1 0 2.828 2.828L14 8.828V28a2 2 0 1 0 4 0V8.828l6.586 6.586c.39.39.902.586 1.414.586s1.024-.195 1.414-.586a2 2 0 0 0 0-2.828z"/></symbol></svg>