<?xml version="1.0" ?><svg id="katman_1" style="enable-background:new 0 0 512 512;" version="1.1" viewBox="0 0 512 512" xml:space="preserve" xmlns="http://www.w3.org/2000/svg" xmlns:xlink="http://www.w3.org/1999/xlink"><style type="text/css">
	.st0{fill:#E84B3C;}
	.st1{fill:#C03A29;}
	.st2{fill:#FFFFFF;}
</style><g><g><circle class="st0" cx="256" cy="256" r="250"/></g><path class="st1" d="M490.6,342.5c-0.5-0.5-0.9-1-1.4-1.4c-37-37-74.1-74.1-111.1-111.1c-3.1-3.1-6.4-5.7-10.2-7.9   c-14.6-8.7-29.2-17.5-43.8-26.3c-46.1-27.7-92.2-55.4-138.4-83.1c-8.9-5.4-18.4-7.3-28.7-5.4c-18.1,3.5-31.6,19.5-31.6,37.9   c0,74.2,0,148.5,0,222.7c0,10.5,3.8,19.6,11.2,27c36.7,36.8,73.5,73.5,110.2,110.3c0.3,0.3,0.5,0.5,0.8,0.7   c2.8,0.1,5.6,0.2,8.4,0.2C363.7,506,455.4,437.9,490.6,342.5z"/><path class="st2" d="M163.9,406c-6.6,0-13.3-1.7-19.4-5.2c-12.5-7.1-19.9-19.8-19.9-34.2V145.4c0-14.3,7.5-27.1,19.9-34.2   c12.5-7.1,27.3-6.9,39.6,0.5l184.3,110.6c11.9,7.2,19.1,19.8,19.1,33.7c0,13.9-7.1,26.5-19.1,33.7L184.1,400.3   C177.8,404.1,170.8,406,163.9,406z M163.9,129.3c-2.7,0-5.4,0.7-7.9,2.1c-5.1,2.9-8.1,8.1-8.1,13.9v221.3c0,5.8,3,11,8.1,13.9   c5.1,2.9,11.1,2.8,16.1-0.2l184.3-110.6c4.9-3,7.8-8,7.8-13.7c0-5.8-2.8-10.8-7.8-13.7L172.1,131.6   C169.5,130.1,166.7,129.3,163.9,129.3z"/></g></svg>