<svg xmlns="http://www.w3.org/2000/svg" xmlns:xlink="http://www.w3.org/1999/xlink" viewBox="0,0,256,256" width="16px" height="16px" fill-rule="nonzero"><g fill="none" fill-rule="nonzero" stroke="none" stroke-width="1" stroke-linecap="butt" stroke-linejoin="miter" stroke-miterlimit="10" stroke-dasharray="" stroke-dashoffset="0" font-family="none" font-weight="none" font-size="none" text-anchor="none" style="mix-blend-mode: normal"><g transform="scale(3.2,3.2)"><path d="M40,63.441l-23.5,11.75v-70.691h47v70.691z" fill="#ffffff"></path><path d="M63,5v69.382l-22.553,-11.276l-0.447,-0.224l-0.447,0.224l-22.553,11.276v-69.382h46M64,4h-48v72l24,-12l24,12v-72z" fill="#ff6b01"></path><path d="M62,53.5c-9.6,0 -17.5,-7.9 -17.5,-17.5c0,-9.6 7.9,-17.5 17.5,-17.5c9.6,0 17.5,7.9 17.5,17.5c0,9.6 -7.9,17.5 -17.5,17.5z" fill="#ffffff"></path><path d="M62,19c9.4,0 17,7.6 17,17c0,9.4 -7.6,17 -17,17c-9.4,0 -17,-7.6 -17,-17c0,-9.4 7.6,-17 17,-17M62,18c-9.9,0 -18,8.1 -18,18c0,9.9 8.1,18 18,18c9.9,0 18,-8.1 18,-18c0,-9.9 -8.1,-18 -18,-18z" fill="#ff6b01"></path><path d="M52,34h20v4h-20z" fill="#ff6b01"></path></g></g></svg>