<!-- Generated by IcoMoon.io -->
<svg version="1.1" xmlns="http://www.w3.org/2000/svg" width="32" height="32" viewBox="0 0 32 32">
<title>play_youtube_social_media_logo_brand_icon-iconscom_61754</title>
<path fill="#fff" d="M16 31.5c-8.547 0-15.5-6.953-15.5-15.5s6.953-15.5 15.5-15.5 15.5 6.953 15.5 15.5-6.953 15.5-15.5 15.5z"></path>
<path fill="#e21b1b" d="M16 1c8.271 0 15 6.729 15 15s-6.729 15-15 15-15-6.729-15-15 6.729-15 15-15zM16 0c-8.837 0-16 7.163-16 16s7.163 16 16 16 16-7.163 16-16-7.163-16-16-16v0z"></path>
<path fill="#fff" d="M16 29.243c-7.302 0-13.243-5.941-13.243-13.243s5.941-13.243 13.243-13.243 13.243 5.941 13.243 13.243-5.941 13.243-13.243 13.243z"></path>
<path fill="#dbdbdb" d="M16 3.007c7.165 0 12.993 5.829 12.993 12.993s-5.829 12.993-12.993 12.993-12.993-5.829-12.993-12.993 5.828-12.993 12.993-12.993zM16 2.507c-7.453 0-13.493 6.040-13.493 13.493s6.040 13.493 13.493 13.493 13.493-6.041 13.493-13.493-6.041-13.493-13.493-13.493v0z"></path>
<path fill="#e21b1b" d="M24.514 12.295c0 0-0.169-1.278-0.69-1.841-0.661-0.738-1.401-0.742-1.741-0.784-2.432-0.188-6.079-0.188-6.079-0.188h-0.008c0 0-3.647 0-6.079 0.188-0.339 0.042-1.079 0.046-1.741 0.784-0.52 0.563-0.69 1.841-0.69 1.841s-0.174 1.5-0.174 2.999v1.406c0 1.501 0.174 3 0.174 3s0.169 1.278 0.69 1.839c0.662 0.738 1.529 0.715 1.916 0.792 1.39 0.143 5.908 0.187 5.908 0.187s3.651-0.006 6.083-0.193c0.339-0.044 1.080-0.048 1.741-0.785 0.52-0.562 0.69-1.839 0.69-1.839s0.174-1.5 0.174-3v-1.406c0-1.5-0.174-3-0.174-3zM13.83 19.259v-6.518l5.432 3.259-5.432 3.259z"></path>
</svg>
