<!-- Generated by IcoMoon.io -->
<svg version="1.1" xmlns="http://www.w3.org/2000/svg" width="32" height="32" viewBox="0 0 32 32">
<title>play_youtube_media_streaming_video_icon_230292</title>
<path d="M20.605 15.42l-6.985-4.035c-0.205-0.12-0.46-0.12-0.67 0-0.205 0.12-0.335 0.34-0.335 0.58v8.065c0 0.24 0.13 0.46 0.335 0.58 0.105 0.060 0.22 0.090 0.335 0.090s0.23-0.030 0.335-0.090l6.985-4.035c0.205-0.12 0.335-0.34 0.335-0.58 0-0.235-0.13-0.455-0.335-0.575zM13.615 19.46v-6.92l5.995 3.46-5.995 3.46z"></path>
<path d="M30.3 8.93c-0.38-1.415-1.49-2.525-2.905-2.905-2.285-0.615-11.025-0.62-11.4-0.62s-9.11 0.005-11.4 0.62c-1.415 0.38-2.525 1.49-2.905 2.905-0.605 2.285-0.61 6.875-0.61 7.070s0.005 4.785 0.62 7.070c0.38 1.415 1.49 2.525 2.905 2.905 2.285 0.615 11.025 0.62 11.4 0.62s9.11-0.005 11.4-0.62c1.415-0.38 2.525-1.49 2.905-2.905 0.615-2.285 0.62-6.875 0.62-7.070s-0.015-4.785-0.63-7.070zM29.335 22.815c-0.285 1.070-1.125 1.91-2.195 2.195-2.16 0.58-11.050 0.585-11.14 0.585s-8.98-0.005-11.14-0.585c-1.070-0.285-1.91-1.13-2.195-2.195-0.58-2.16-0.585-6.77-0.585-6.815s0.005-4.65 0.585-6.815c0.285-1.070 1.13-1.91 2.195-2.195 2.16-0.58 11.050-0.585 11.14-0.585s8.98 0.005 11.14 0.585c1.070 0.285 1.91 1.125 2.195 2.195v0c0.58 2.16 0.585 6.765 0.585 6.815s-0.005 4.655-0.585 6.815z"></path>
</svg>
