<svg xmlns="http://www.w3.org/2000/svg" aria-hidden="true" style="position:absolute;width:0;height:0;overflow:hidden"><defs>
<symbol id="icon-play-circle_icon-iconscom_69988" viewBox="0 0 32 32">
<path d="M16 2c7.8 0 14 6.2 14 14s-6.2 14-14 14S2 23.8 2 16 8.2 2 16 2zm0-2C7.2 0 0 7.2 0 16s7.2 16 16 16 16-7.2 16-16S24.8 0 16 0z"/><path d="M12 8v16l12-8z"/></symbol>
<symbol id="icon-play_youtube_media_streaming_video_icon_230292" viewBox="0 0 32 32">
<path d="m20.605 15.42-6.985-4.035a.668.668 0 0 0-1.005.58v8.065a.674.674 0 0 0 .67.67c.115 0 .23-.03.335-.09l6.985-4.035a.674.674 0 0 0 .335-.58.672.672 0 0 0-.335-.575zm-6.99 4.04v-6.92L19.61 16l-5.995 3.46z"/><path d="M30.3 8.93a4.118 4.118 0 0 0-2.905-2.905c-2.285-.615-11.025-.62-11.4-.62s-9.11.005-11.4.62A4.118 4.118 0 0 0 1.69 8.93c-.605 2.285-.61 6.875-.61 7.07s.005 4.785.62 7.07a4.118 4.118 0 0 0 2.905 2.905c2.285.615 11.025.62 11.4.62s9.11-.005 11.4-.62a4.118 4.118 0 0 0 2.905-2.905c.615-2.285.62-6.875.62-7.07s-.015-4.785-.63-7.07zm-.965 13.885a3.101 3.101 0 0 1-2.195 2.195c-2.16.58-11.05.585-11.14.585s-8.98-.005-11.14-.585a3.11 3.11 0 0 1-2.195-2.195c-.58-2.16-.585-6.77-.585-6.815s.005-4.65.585-6.815A3.11 3.11 0 0 1 4.86 6.99c2.16-.58 11.05-.585 11.14-.585s8.98.005 11.14.585a3.101 3.101 0 0 1 2.195 2.195c.58 2.16.585 6.765.585 6.815s-.005 4.655-.585 6.815z"/></symbol>
<symbol id="icon-iconfinder-play-4341313_120530" viewBox="0 0 32 32">
<path fill="#e84b3c" d="M31.625 16c0 8.629-6.996 15.625-15.625 15.625S.375 24.629.375 16 7.371.375 16 .375 31.625 7.371 31.625 16z" style="fill:var(--color1, #e84b3c)"/><path fill="#c03a29" d="M30.663 21.406c-.031-.031-.056-.063-.087-.087l-6.944-6.944a3.081 3.081 0 0 0-.637-.494c-.913-.544-1.825-1.094-2.738-1.644-2.881-1.731-5.762-3.463-8.65-5.194-.556-.338-1.15-.456-1.794-.338-1.131.219-1.975 1.219-1.975 2.369v13.919c0 .656.238 1.225.7 1.688 2.294 2.3 4.594 4.594 6.887 6.894a.328.328 0 0 0 .05.044c.175.006.35.012.525.012 6.731-.006 12.462-4.262 14.663-10.225z" style="fill:var(--color2, #c03a29)"/><path fill="#fff" d="M10.244 25.375c-.412 0-.831-.106-1.213-.325a2.424 2.424 0 0 1-1.244-2.137V9.088c0-.894.469-1.694 1.244-2.138a2.424 2.424 0 0 1 2.475.031l11.519 6.912c.744.45 1.194 1.238 1.194 2.106s-.444 1.656-1.194 2.106l-11.519 6.912a2.441 2.441 0 0 1-1.262.356zm0-17.294c-.169 0-.338.044-.494.131a.987.987 0 0 0-.506.869v13.831c0 .363.188.688.506.869s.694.175 1.006-.012l11.519-6.912a.993.993 0 0 0 .488-.856.962.962 0 0 0-.488-.856L10.756 8.226a1.023 1.023 0 0 0-.512-.144z" style="fill:var(--color3, #fff)"/></symbol>
<symbol id="icon-play_youtube_social_media_logo_brand_icon-iconscom_61754" viewBox="0 0 32 32">
<path fill="#fff" d="M16 31.5C7.453 31.5.5 24.547.5 16S7.453.5 16 .5 31.5 7.453 31.5 16 24.547 31.5 16 31.5z" style="fill:var(--color3, #fff)"/><path fill="#e21b1b" d="M16 1c8.271 0 15 6.729 15 15s-6.729 15-15 15S1 24.271 1 16 7.729 1 16 1zm0-1C7.163 0 0 7.163 0 16s7.163 16 16 16 16-7.163 16-16S24.837 0 16 0z" style="fill:var(--color4, #e21b1b)"/><path fill="#fff" d="M16 29.243C8.698 29.243 2.757 23.302 2.757 16S8.698 2.757 16 2.757 29.243 8.698 29.243 16 23.302 29.243 16 29.243z" style="fill:var(--color3, #fff)"/><path fill="#dbdbdb" d="M16 3.007c7.165 0 12.993 5.829 12.993 12.993S23.164 28.993 16 28.993 3.007 23.164 3.007 16 8.835 3.007 16 3.007zm0-.5C8.547 2.507 2.507 8.547 2.507 16S8.547 29.493 16 29.493 29.493 23.452 29.493 16 23.452 2.507 16 2.507z" style="fill:var(--color5, #dbdbdb)"/><path fill="#e21b1b" d="M24.514 12.295s-.169-1.278-.69-1.841c-.661-.738-1.401-.742-1.741-.784-2.432-.188-6.079-.188-6.079-.188h-.008s-3.647 0-6.079.188c-.339.042-1.079.046-1.741.784-.52.563-.69 1.841-.69 1.841s-.174 1.5-.174 2.999V16.7c0 1.501.174 3 .174 3s.169 1.278.69 1.839c.662.738 1.529.715 1.916.792 1.39.143 5.908.187 5.908.187s3.651-.006 6.083-.193c.339-.044 1.08-.048 1.741-.785.52-.562.69-1.839.69-1.839s.174-1.5.174-3v-1.406c0-1.5-.174-3-.174-3zM13.83 19.259v-6.518L19.262 16l-5.432 3.259z" style="fill:var(--color4, #e21b1b)"/></symbol></defs></svg>