<?xml version="1.0" encoding="iso-8859-1"?>
<!-- Generator: Adobe Illustrator 16.0.0, SVG Export Plug-In . SVG Version: 6.00 Build 0)  -->
<!DOCTYPE svg PUBLIC "-//W3C//DTD SVG 1.1//EN" "http://www.w3.org/Graphics/SVG/1.1/DTD/svg11.dtd">
<svg version="1.1" id="Capa_1" xmlns="http://www.w3.org/2000/svg" xmlns:xlink="http://www.w3.org/1999/xlink" x="0px" y="0px"
	 width="636.371px" height="636.371px" viewBox="0 0 636.371 636.371" style="enable-background:new 0 0 636.371 636.371;"
	 xml:space="preserve">
<g>
	<g>
		<g>
			<path d="M605.671,597.064H31.328V223.4c0-15.185,13.113-27.661,28.95-27.661h516.443c16.153,0,28.95,12.476,28.95,27.661V597.064
				L605.671,597.064z M604.397,167.275h-185.33c-21.433-15.661-46.521-26.388-73.857-30.7c0,0,96.398-96.253,103.595-103.459
				c7.206-7.182,8.334-16.143,0-23.65c-12.467-10.069-23.183,1.911-23.183,1.911S323.923,113.066,312.098,124.895
				c-11.669,11.67-17.105,3.667-17.105,3.667s-79.463-79.454-86.981-86.169c-7.521-6.71-17.271-4.318-23.192,2.562
				c-8.314,10.386,1.93,21.097,1.93,21.097l77.373,76.916h0.331c-17.266,5.597-33.263,13.911-47.65,24.297H31.974
				C14.388,167.265,0,181.657,0,199.239v431.695h636.371V199.249C636.371,181.667,622.115,167.275,604.397,167.275L604.397,167.275z
				"/>
		</g>
		<path d="M541.188,518.402c0,8.081-6.651,14.665-14.858,14.665H109.707c-8.208,0-14.888-6.574-14.888-14.665V277.94
			c0-8.105,6.671-14.699,14.888-14.699h416.622c8.207,0,14.858,6.584,14.858,14.699V518.402L541.188,518.402L541.188,518.402z
			 M555.988,229.283H79.376c-9.394,0-17.018,8.179-17.018,18.272v299.223c0,10.085,7.624,18.253,17.018,18.253h476.612
			c9.413,0,17.028-8.168,17.028-18.253V247.555C573.017,237.461,565.401,229.283,555.988,229.283L555.988,229.283z"/>
	</g>
</g>
<g>
</g>
<g>
</g>
<g>
</g>
<g>
</g>
<g>
</g>
<g>
</g>
<g>
</g>
<g>
</g>
<g>
</g>
<g>
</g>
<g>
</g>
<g>
</g>
<g>
</g>
<g>
</g>
<g>
</g>
</svg>
